{"glyphs":{"0":{"ha":789,"x_min":64,"x_max":724,"o":"m 64 361 l 64 565 q 153 846 64 743 q 394 949 241 949 q 635 846 547 949 q 724 565 724 743 l 724 361 q 635 80 724 184 q 394 -23 547 -23 q 153 80 241 -23 q 64 361 64 184 m 328 619 l 328 307 q 394 222 328 222 q 460 307 460 222 l 460 619 q 394 704 460 704 q 328 619 328 704 z "},"1":{"ha":789,"x_min":264,"x_max":526,"o":"m 526 926 l 526 0 l 264 0 l 264 926 l 526 926 z "},"2":{"ha":789,"x_min":68,"x_max":722,"o":"m 722 268 l 722 0 l 124 0 l 421 557 l 431 576 q 444 621 444 599 q 379 675 444 675 q 335 657 354 675 q 317 613 317 638 q 341 562 317 585 l 222 350 q 108 467 148 396 q 68 625 68 538 q 162 853 68 758 q 390 949 256 949 q 618 854 524 949 q 712 625 712 760 q 677 481 712 548 l 568 268 l 722 268 z "},"3":{"ha":789,"x_min":146,"x_max":644,"o":"m 149 926 l 640 926 l 488 570 q 607 449 570 515 q 644 294 644 384 q 545 69 644 161 q 303 -23 447 -23 q 146 7 224 -23 l 146 269 q 248 232 205 232 q 328 266 296 232 q 360 350 360 300 q 312 442 360 408 q 183 476 264 476 l 252 659 l 149 659 l 149 926 z "},"4":{"ha":789,"x_min":55,"x_max":735,"o":"m 735 926 l 735 0 l 475 0 l 475 707 l 359 477 l 416 477 l 416 276 l 55 276 l 329 926 l 735 926 z "},"5":{"ha":789,"x_min":117,"x_max":673,"o":"m 646 926 l 646 660 l 418 660 l 406 618 q 591 514 531 582 q 673 293 673 422 q 573 67 673 157 q 321 -23 473 -23 q 119 31 218 -23 l 119 258 q 258 220 198 220 q 357 248 321 220 q 393 326 393 277 q 337 418 393 380 q 199 456 281 456 q 117 445 168 456 l 216 926 l 646 926 z "},"6":{"ha":789,"x_min":41,"x_max":748,"o":"m 247 953 l 490 867 l 310 361 q 302 322 302 339 q 329 259 302 286 q 393 233 356 233 q 457 259 431 233 q 483 324 483 286 q 457 389 483 362 q 393 415 431 415 q 367 412 385 415 l 477 678 q 685 535 621 616 q 748 334 748 454 q 645 80 748 183 q 393 -23 543 -23 q 147 80 252 -23 q 41 322 41 184 q 91 523 41 386 l 247 953 z "},"7":{"ha":789,"x_min":83,"x_max":707,"o":"m 707 926 l 438 0 l 157 0 l 366 660 l 83 660 l 83 926 l 707 926 z "},"8":{"ha":789,"x_min":66,"x_max":723,"o":"m 622 531 q 701 421 680 471 q 723 299 723 371 q 629 69 723 161 q 395 -23 535 -23 q 160 69 254 -23 q 66 299 66 161 q 89 421 66 369 q 167 531 111 473 q 117 679 117 597 q 195 872 117 796 q 393 949 273 949 q 594 873 515 949 q 672 678 672 797 q 622 531 672 598 m 391 750 q 339 728 361 750 q 317 675 317 705 q 338 618 317 641 q 394 596 360 596 q 447 619 425 596 q 469 673 469 642 q 446 728 469 706 q 391 750 424 750 m 393 405 q 314 373 347 405 q 281 295 281 340 q 313 213 281 245 q 393 180 345 180 q 473 213 441 180 q 505 295 505 245 q 472 372 505 340 q 393 405 439 405 z "},"9":{"ha":789,"x_min":41,"x_max":748,"o":"m 543 -27 l 300 59 l 480 565 q 488 604 488 587 q 460 667 488 641 q 396 694 433 694 q 333 667 359 694 q 307 602 307 640 q 333 537 307 564 q 397 511 359 511 q 422 513 405 511 l 313 248 q 105 391 168 311 q 41 593 41 472 q 144 846 41 743 q 396 949 247 949 q 643 845 537 949 q 748 604 748 742 q 699 403 748 539 l 543 -27 z "}," ":{"ha":347,"x_min":0,"x_max":0,"o":""},"!":{"ha":600,"x_min":139,"x_max":461,"o":"m 430 926 l 425 351 l 184 351 l 170 926 l 430 926 m 299 304 q 413 256 366 304 q 461 141 461 208 q 414 28 461 75 q 299 -18 366 -18 q 184 27 229 -18 q 139 142 139 72 q 186 257 139 210 q 299 304 233 304 z "},"\"":{"ha":694,"x_min":92,"x_max":604,"o":"m 271 555 l 143 555 l 92 926 l 324 926 l 271 555 m 551 555 l 422 555 l 371 926 l 604 926 l 551 555 z "},"#":{"ha":938,"x_min":82,"x_max":857,"o":"m 652 247 l 618 0 l 465 0 l 500 247 l 363 247 l 328 0 l 175 0 l 210 247 l 82 247 l 103 396 l 231 396 l 250 534 l 123 534 l 143 683 l 271 683 l 305 926 l 467 926 l 433 683 l 552 683 l 586 926 l 748 926 l 714 683 l 857 683 l 836 534 l 693 534 l 673 396 l 817 396 l 795 247 l 652 247 m 541 534 l 403 534 l 384 396 l 521 396 l 541 534 z "},"$":{"ha":789,"x_min":153,"x_max":637,"o":"m 277 1034 l 534 1034 l 534 949 q 637 913 597 937 l 637 673 q 557 697 589 697 q 508 680 528 697 q 489 635 489 662 q 521 555 489 604 q 598 417 579 465 q 618 313 618 369 q 534 109 618 197 l 534 -103 l 277 -103 l 277 3 q 153 42 213 13 l 153 288 q 225 274 205 274 q 284 294 262 274 q 306 349 306 315 q 267 444 306 389 l 239 484 q 181 654 181 566 q 277 882 181 789 l 277 1034 z "},"%":{"ha":1286,"x_min":88,"x_max":1199,"o":"m 330 939 q 502 868 431 939 q 573 696 573 797 q 502 525 573 595 q 330 454 431 454 q 159 525 230 454 q 88 696 88 596 q 159 867 88 796 q 330 939 231 939 m 331 803 q 256 772 287 803 q 224 696 224 741 q 256 621 224 652 q 331 590 287 590 q 406 621 375 590 q 437 696 437 652 q 406 772 437 741 q 331 803 375 803 m 867 926 l 493 0 l 410 0 l 786 926 l 867 926 m 957 476 q 1128 405 1057 476 q 1199 233 1199 334 q 1128 62 1199 133 q 957 -9 1057 -9 q 785 62 857 -9 q 714 233 714 133 q 785 405 714 334 q 957 476 857 476 m 957 340 q 882 309 913 340 q 850 234 850 278 q 882 158 850 189 q 957 127 913 127 q 1032 158 1001 127 q 1063 234 1063 189 q 1032 309 1063 278 q 957 340 1001 340 z "},"&":{"ha":1059,"x_min":162,"x_max":897,"o":"m 631 397 l 804 397 q 806 353 806 366 q 766 198 806 271 l 897 0 l 655 0 l 628 33 q 463 -23 549 -23 q 250 63 338 -23 q 162 273 162 150 q 283 511 162 412 q 218 681 218 593 q 295 870 218 791 q 482 949 373 949 q 668 873 590 949 q 746 692 746 797 q 745 657 746 678 l 535 657 q 487 726 530 726 q 447 688 447 726 q 458 657 447 674 l 631 397 m 412 335 q 378 278 378 311 q 398 225 378 247 q 448 203 418 203 q 494 222 469 203 l 412 335 z "},"'":{"ha":347,"x_min":53,"x_max":294,"o":"m 242 555 l 105 555 l 53 926 l 294 926 l 242 555 z "},"(":{"ha":509,"x_min":96,"x_max":451,"o":"m 451 -176 l 261 -176 q 133 95 169 -26 q 96 375 96 216 q 133 656 96 532 q 261 926 170 779 l 450 926 q 315 378 315 640 q 451 -176 315 111 z "},")":{"ha":509,"x_min":58,"x_max":413,"o":"m 58 926 l 248 926 q 377 655 340 777 q 413 375 413 534 q 376 94 413 218 q 248 -176 339 -30 l 58 -176 q 195 372 195 110 q 58 926 195 640 z "},"*":{"ha":694,"x_min":128,"x_max":566,"o":"m 406 807 q 446 812 432 812 q 566 751 508 812 l 445 680 q 474 589 474 636 q 448 500 474 549 l 343 593 q 228 539 296 539 q 181 544 211 539 l 239 678 q 128 821 144 709 l 271 808 q 374 949 277 902 l 406 807 z "},"+":{"ha":1040,"x_min":173,"x_max":866,"o":"m 421 376 l 173 376 l 173 568 l 421 568 l 421 828 l 618 828 l 618 568 l 866 568 l 866 376 l 618 376 l 618 117 l 421 117 l 421 376 z "},",":{"ha":517,"x_min":102,"x_max":416,"o":"m 255 -71 l 255 -21 q 144 27 187 -17 q 102 136 102 71 q 148 251 102 205 q 261 298 193 298 q 372 251 327 298 q 416 135 416 204 q 373 7 416 63 q 255 -71 329 -48 z "},"-":{"ha":310,"x_min":0,"x_max":310,"o":"m 310 500 l 310 321 l 0 321 l 0 500 l 310 500 z "},".":{"ha":526,"x_min":102,"x_max":424,"o":"m 262 304 q 376 256 328 304 q 424 141 424 208 q 376 28 424 75 q 262 -18 329 -18 q 147 27 192 -18 q 102 142 102 72 q 149 257 102 210 q 262 304 195 304 z "},"/":{"ha":481,"x_min":41,"x_max":417,"o":"m 417 926 l 164 -176 l 41 -176 l 293 926 l 417 926 z "},":":{"ha":526,"x_min":102,"x_max":424,"o":"m 262 304 q 376 256 328 304 q 424 141 424 208 q 376 28 424 75 q 262 -18 329 -18 q 147 27 192 -18 q 102 142 102 72 q 149 257 102 210 q 262 304 195 304 m 262 690 q 376 642 328 690 q 424 528 424 594 q 376 415 424 461 q 262 368 329 368 q 147 413 192 368 q 102 528 102 458 q 149 643 102 596 q 262 690 195 690 z "},";":{"ha":526,"x_min":102,"x_max":424,"o":"m 258 -71 l 258 -21 q 148 27 191 -17 q 105 136 105 71 q 151 251 105 205 q 264 298 197 298 q 375 251 330 298 q 420 135 420 204 q 376 7 420 63 q 258 -71 332 -48 m 262 690 q 376 642 328 690 q 424 528 424 594 q 376 415 424 461 q 262 368 329 368 q 147 413 192 368 q 102 528 102 458 q 149 643 102 596 q 262 690 195 690 z "},"<":{"ha":694,"x_min":46,"x_max":648,"o":"m 648 901 l 648 655 l 308 469 l 648 282 l 648 37 l 46 366 l 46 573 l 648 901 z "},"=":{"ha":1040,"x_min":173,"x_max":866,"o":"m 173 675 l 866 675 l 866 504 l 173 504 l 173 675 m 173 441 l 866 441 l 866 270 l 173 270 l 173 441 z "},">":{"ha":694,"x_min":46,"x_max":648,"o":"m 46 37 l 46 283 l 386 470 l 47 656 l 47 901 l 648 572 l 648 366 l 46 37 z "},"?":{"ha":737,"x_min":65,"x_max":672,"o":"m 489 340 l 237 340 l 237 382 q 256 508 237 467 q 326 570 275 548 l 372 591 q 424 656 424 614 q 407 697 424 680 q 366 714 390 714 q 299 622 299 714 l 65 622 q 122 823 65 745 q 231 915 164 881 q 370 949 298 949 q 585 864 498 949 q 672 655 672 780 q 547 439 672 501 q 498 404 507 418 q 489 340 489 389 m 368 304 q 482 256 434 304 q 530 141 530 208 q 482 28 530 75 q 368 -18 435 -18 q 253 27 298 -18 q 208 142 208 72 q 254 257 208 210 q 368 304 301 304 z "},"@":{"ha":1040,"x_min":53,"x_max":987,"o":"m 809 131 l 836 25 q 561 -18 708 -18 q 171 134 307 -18 q 53 454 53 265 q 193 803 53 663 q 539 943 332 943 q 860 828 733 943 q 987 536 987 712 q 906 314 987 402 q 703 225 825 225 q 599 249 638 225 q 560 314 560 273 q 568 363 560 333 l 593 461 q 596 488 596 473 q 543 543 596 543 q 485 517 509 543 q 460 458 460 492 q 501 415 460 415 q 539 422 521 415 l 478 254 q 442 250 456 250 q 325 294 368 250 q 281 412 281 338 q 369 624 281 534 q 578 713 458 713 q 716 669 664 713 q 769 553 769 625 q 760 487 769 523 l 740 405 l 736 391 q 730 357 730 371 q 760 324 730 324 q 844 390 806 324 q 882 536 882 456 q 788 755 882 671 q 543 839 694 839 q 274 729 380 839 q 168 452 168 620 q 251 208 168 308 q 563 86 352 86 q 809 131 683 86 z "},"A":{"ha":822,"x_min":74,"x_max":748,"o":"m 429 465 l 429 220 l 349 220 l 349 0 l 74 0 l 74 589 q 167 854 74 760 q 429 949 260 949 q 670 863 592 949 q 748 598 748 777 l 748 0 l 473 0 l 473 580 q 460 655 473 634 q 414 676 447 676 q 349 580 349 676 l 349 465 l 429 465 z "},"B":{"ha":793,"x_min":93,"x_max":774,"o":"m 93 926 l 429 926 q 728 690 728 926 q 626 496 728 574 q 774 267 774 432 q 687 64 774 140 q 595 14 644 28 q 464 0 547 0 l 412 0 l 412 238 l 458 238 q 517 249 500 238 q 534 286 534 259 q 465 330 534 330 l 412 330 l 412 577 q 488 629 488 577 q 419 677 488 677 l 368 677 l 368 0 l 93 0 l 93 926 z "},"C":{"ha":1044,"x_min":37,"x_max":1007,"o":"m 719 452 l 1007 445 q 852 99 979 221 q 522 -23 726 -23 q 176 116 315 -23 q 37 460 37 254 q 179 808 37 667 q 529 949 321 949 q 871 810 734 949 q 1005 544 966 715 l 710 524 q 522 676 661 676 q 377 615 434 676 q 319 460 319 554 q 376 310 319 369 q 518 250 432 250 q 657 302 606 250 q 719 452 709 355 z "},"D":{"ha":1017,"x_min":93,"x_max":980,"o":"m 368 660 l 368 0 l 93 0 l 93 926 l 452 926 q 821 819 688 926 q 980 471 980 690 q 844 127 980 260 q 495 -5 709 -5 q 413 -3 470 -5 l 413 269 l 457 269 q 698 471 698 269 q 461 660 698 660 l 368 660 z "},"E":{"ha":669,"x_min":74,"x_max":604,"o":"m 587 566 l 587 359 l 407 359 q 355 349 370 359 q 340 312 340 338 q 355 274 340 283 q 419 264 371 264 l 604 264 l 604 0 l 388 0 q 155 73 235 0 q 74 283 74 146 l 74 646 q 150 852 74 779 q 365 926 227 926 l 604 926 l 604 660 l 429 660 q 357 614 357 660 q 374 576 357 587 q 435 566 391 566 l 587 566 z "},"F":{"ha":669,"x_min":74,"x_max":706,"o":"m 441 490 l 441 241 l 349 241 l 349 0 l 74 0 l 74 574 q 174 843 74 736 q 426 949 274 949 q 706 804 593 949 l 480 640 q 413 692 461 692 q 349 604 349 692 l 349 490 l 441 490 z "},"G":{"ha":851,"x_min":37,"x_max":832,"o":"m 485 519 l 747 519 q 832 297 832 414 q 733 69 832 161 q 488 -23 633 -23 q 168 120 300 -23 q 37 469 37 263 q 171 812 37 675 q 505 949 304 949 q 657 921 574 949 l 657 646 q 538 676 592 676 q 380 616 441 676 q 319 459 319 555 q 376 303 319 361 q 530 245 433 245 q 591 281 591 245 q 551 309 591 309 l 485 309 l 485 519 z "},"H":{"ha":859,"x_min":93,"x_max":767,"o":"m 445 595 l 445 351 l 368 351 l 368 0 l 93 0 l 93 926 l 368 926 l 368 595 l 445 595 m 767 926 l 767 0 l 492 0 l 492 926 l 767 926 z "},"I":{"ha":460,"x_min":93,"x_max":368,"o":"m 368 926 l 368 0 l 93 0 l 93 926 l 368 926 z "},"J":{"ha":422,"x_min":-9,"x_max":357,"o":"m 357 926 l 357 302 q 277 69 357 161 q 75 -23 197 -23 q -9 -7 39 -23 l -9 259 q 28 250 11 250 q 82 338 82 250 l 82 926 l 357 926 z "},"K":{"ha":896,"x_min":93,"x_max":897,"o":"m 897 926 l 652 506 l 895 0 l 586 0 l 376 511 l 614 926 l 897 926 m 368 926 l 368 0 l 93 0 l 93 926 l 368 926 z "},"L":{"ha":466,"x_min":74,"x_max":466,"o":"m 74 926 l 349 926 l 349 376 q 370 290 349 311 q 452 269 391 269 l 466 269 l 466 0 l 393 0 q 158 88 242 0 q 74 332 74 176 l 74 926 z "},"M":{"ha":1128,"x_min":74,"x_max":1054,"o":"m 74 0 l 74 667 q 149 870 74 791 q 345 949 224 949 q 564 818 487 949 q 664 919 610 888 q 796 949 718 949 q 987 870 921 949 q 1054 644 1054 791 l 1054 0 l 779 0 l 779 602 q 771 662 779 647 q 743 676 764 676 q 702 607 702 676 l 702 0 l 427 0 l 427 602 q 419 661 427 646 q 390 676 412 676 q 349 602 349 676 l 349 0 l 74 0 z "},"N":{"ha":818,"x_min":74,"x_max":743,"o":"m 74 0 l 74 601 q 169 854 74 759 q 420 949 263 949 q 660 857 577 949 q 743 591 743 764 l 743 0 l 468 0 l 468 591 q 408 676 468 676 q 349 591 349 676 l 349 0 l 74 0 z "},"O":{"ha":1046,"x_min":37,"x_max":1010,"o":"m 532 949 q 869 806 728 949 q 1010 463 1010 663 q 868 119 1010 260 q 524 -23 726 -23 q 180 119 322 -23 q 37 463 37 262 q 181 808 37 667 q 532 949 324 949 m 524 676 q 379 614 439 676 q 319 463 319 551 q 379 313 319 375 q 524 250 439 250 q 668 312 609 250 q 728 463 728 374 q 668 614 728 552 q 524 676 609 676 z "},"P":{"ha":781,"x_min":74,"x_max":760,"o":"m 394 320 l 394 563 q 477 627 477 563 q 414 685 477 685 q 349 605 349 685 l 349 0 l 74 0 l 74 576 q 92 723 74 666 q 153 830 110 781 q 275 917 202 885 q 427 949 349 949 q 664 854 568 949 q 760 618 760 759 q 673 397 760 482 q 436 319 595 319 l 394 320 z "},"Q":{"ha":1045,"x_min":37,"x_max":1008,"o":"m 391 -85 l 391 -5 q 133 168 230 40 q 37 465 37 296 q 205 831 37 688 q 523 949 345 949 q 894 783 753 949 q 1008 473 1008 648 q 907 164 1008 300 q 653 -5 816 41 l 653 -85 l 391 -85 m 401 391 l 644 391 l 644 287 q 726 464 726 357 q 665 613 726 550 q 523 676 605 676 q 380 613 440 676 q 319 464 319 550 q 401 287 319 354 l 401 391 z "},"R":{"ha":831,"x_min":93,"x_max":831,"o":"m 368 677 l 368 0 l 93 0 l 93 926 l 446 926 q 696 846 608 926 q 795 618 795 756 q 673 382 795 478 l 831 0 l 543 0 l 409 298 l 409 536 l 431 536 q 517 611 517 536 q 417 677 517 677 l 368 677 z "},"S":{"ha":574,"x_min":46,"x_max":528,"o":"m 528 930 l 528 666 q 481 676 498 676 q 428 653 450 676 q 406 597 406 630 q 430 527 406 570 l 451 490 q 508 299 508 391 q 412 71 508 164 q 178 -23 316 -23 q 46 7 111 -23 l 46 275 q 116 250 85 250 q 176 271 152 250 q 200 323 200 292 q 161 412 200 343 q 100 629 100 520 q 193 854 100 760 q 416 949 286 949 q 528 930 473 949 z "},"T":{"ha":715,"x_min":9,"x_max":706,"o":"m 496 660 l 496 0 l 220 0 l 220 660 l 9 660 l 9 926 l 706 926 l 706 660 l 496 660 z "},"U":{"ha":818,"x_min":74,"x_max":743,"o":"m 743 926 l 743 326 q 649 72 743 167 q 397 -23 554 -23 q 157 69 240 -23 q 74 334 74 161 l 74 926 l 349 926 l 349 335 q 410 250 349 250 q 468 335 468 250 l 468 926 l 743 926 z "},"V":{"ha":726,"x_min":-46,"x_max":758,"o":"m 758 926 l 355 -53 l -46 926 l 273 926 l 357 637 l 451 926 l 758 926 z "},"W":{"ha":1128,"x_min":74,"x_max":1054,"o":"m 1054 926 l 1054 259 q 979 56 1054 134 q 784 -23 903 -23 q 564 108 640 -23 q 464 7 517 37 q 332 -23 410 -23 q 140 56 207 -23 q 74 282 74 134 l 74 926 l 349 926 l 349 323 q 356 264 349 279 q 385 250 363 250 q 426 319 426 250 l 426 926 l 701 926 l 701 323 q 709 265 701 280 q 738 250 716 250 q 779 323 779 250 l 779 926 l 1054 926 z "},"X":{"ha":692,"x_min":-46,"x_max":739,"o":"m 730 926 l 490 475 l 739 0 l 449 0 l 335 224 l 239 0 l -46 0 l 208 468 l -33 926 l 254 926 l 362 715 l 449 926 l 730 926 z "},"Y":{"ha":699,"x_min":-56,"x_max":745,"o":"m 745 926 l 484 514 l 484 0 l 208 0 l 208 514 l -56 926 l 224 926 l 343 735 l 471 926 l 745 926 z "},"Z":{"ha":718,"x_min":0,"x_max":718,"o":"m 718 926 l 431 266 l 715 266 l 715 0 l 16 0 l 302 660 l 0 660 l 0 926 l 718 926 z "},"[":{"ha":509,"x_min":62,"x_max":448,"o":"m 278 759 l 278 -9 l 448 -9 l 448 -176 l 62 -176 l 62 926 l 448 926 l 448 759 l 278 759 z "},"\\":{"ha":481,"x_min":65,"x_max":441,"o":"m 65 926 l 189 926 l 441 -176 l 318 -176 l 65 926 z "},"]":{"ha":509,"x_min":62,"x_max":447,"o":"m 231 -9 l 231 759 l 62 759 l 62 926 l 447 926 l 447 -176 l 62 -176 l 62 -9 l 231 -9 z "},"^":{"ha":694,"x_min":12,"x_max":683,"o":"m 229 473 l 12 473 l 210 932 l 484 932 l 683 473 l 466 473 l 348 765 l 229 473 z "},"_":{"ha":694,"x_min":0,"x_max":694,"o":"m 0 -71 l 694 -71 l 694 -216 l 0 -216 l 0 -71 z "},"`":{"ha":694,"x_min":149,"x_max":453,"o":"m 310 901 l 453 744 l 310 744 l 149 901 l 310 901 z "},"a":{"ha":817,"x_min":37,"x_max":743,"o":"m 450 254 l 450 -9 q 393 -14 418 -14 q 138 86 240 -14 q 37 338 37 186 q 139 587 37 485 q 389 690 242 690 q 648 594 553 690 q 743 332 743 498 l 743 0 l 489 0 l 489 313 q 463 399 489 367 q 393 431 437 431 q 323 401 353 431 q 294 332 294 372 q 321 263 294 290 q 388 236 347 236 q 450 254 421 236 z "},"b":{"ha":804,"x_min":59,"x_max":766,"o":"m 313 926 l 313 372 q 410 237 313 237 q 480 265 451 237 q 509 333 509 293 q 481 402 509 374 q 415 431 454 431 q 351 406 387 431 l 351 686 q 419 690 396 690 q 664 587 562 690 q 766 338 766 484 q 663 88 766 190 q 408 -14 559 -14 q 259 20 332 -14 q 140 109 187 53 q 59 362 59 207 l 59 926 l 313 926 z "},"c":{"ha":777,"x_min":37,"x_max":741,"o":"m 489 311 l 741 321 q 631 80 730 174 q 392 -14 533 -14 q 140 90 243 -14 q 37 344 37 193 q 141 589 37 487 q 390 690 245 690 q 614 610 517 690 q 734 406 711 530 l 477 397 q 393 440 444 440 q 322 412 350 440 q 294 340 294 383 q 324 266 294 296 q 397 236 353 236 q 489 311 462 236 z "},"d":{"ha":804,"x_min":37,"x_max":744,"o":"m 490 926 l 744 926 l 744 362 q 663 109 744 207 q 544 20 616 53 q 395 -14 471 -14 q 140 88 244 -14 q 37 338 37 190 q 140 585 37 481 q 384 690 243 690 q 452 686 406 690 l 452 406 q 389 431 420 431 q 322 402 350 431 q 294 332 294 373 q 323 265 294 293 q 393 237 352 237 q 490 372 490 237 l 490 926 z "},"e":{"ha":770,"x_min":37,"x_max":741,"o":"m 739 297 l 354 297 q 345 351 345 326 q 357 417 345 385 l 486 417 q 401 492 473 492 q 324 452 354 492 q 294 349 294 412 q 323 242 294 283 q 399 201 352 201 q 472 239 437 201 l 616 66 q 392 -14 515 -14 q 139 87 241 -14 q 37 338 37 189 q 140 589 37 486 q 394 691 243 691 q 641 591 541 691 q 741 345 741 491 q 739 297 741 330 z "},"f":{"ha":478,"x_min":74,"x_max":441,"o":"m 441 526 l 441 260 l 328 260 l 328 0 l 74 0 l 74 574 q 107 740 74 671 q 235 883 149 827 q 414 938 321 938 l 441 937 l 441 671 q 428 672 432 672 q 354 640 380 672 q 328 549 328 608 l 328 526 l 441 526 z "},"g":{"ha":801,"x_min":37,"x_max":726,"o":"m 435 279 l 435 46 q 330 26 380 26 q 122 119 207 26 q 37 346 37 212 q 139 591 37 491 q 391 690 241 690 q 543 659 470 690 q 656 573 615 627 q 726 315 726 484 l 726 93 q 623 -201 726 -88 q 355 -314 520 -314 q 229 -289 305 -314 l 229 -58 q 329 -85 278 -85 q 435 -40 397 -85 q 472 89 472 5 l 472 343 q 386 450 472 450 q 322 421 349 450 q 294 357 294 393 q 320 292 294 318 q 385 267 347 267 q 435 279 411 267 z "},"h":{"ha":743,"x_min":74,"x_max":669,"o":"m 328 926 l 328 643 q 456 690 392 690 q 611 619 554 690 q 669 429 669 549 l 669 0 l 415 0 l 415 357 q 406 416 415 401 q 370 431 397 431 q 328 368 328 431 l 328 0 l 74 0 l 74 926 l 328 926 z "},"i":{"ha":403,"x_min":74,"x_max":328,"o":"m 328 676 l 328 0 l 74 0 l 74 676 l 328 676 m 201 978 q 291 942 253 978 q 328 856 328 905 q 293 769 328 803 q 201 735 257 735 q 110 769 146 735 q 75 856 75 803 q 112 942 75 905 q 201 978 150 978 z "},"j":{"ha":494,"x_min":-93,"x_max":419,"o":"m 165 676 l 419 676 l 419 105 q 334 -180 419 -74 q 37 -314 227 -314 q -93 -290 -20 -314 l -93 -50 q 15 -80 -29 -80 q 165 142 165 -80 l 165 676 m 285 978 q 374 942 336 978 q 412 856 412 905 q 376 769 412 803 q 285 735 340 735 q 194 769 229 735 q 158 856 158 803 q 196 942 158 905 q 285 978 233 978 z "},"k":{"ha":749,"x_min":74,"x_max":777,"o":"m 328 926 l 328 0 l 74 0 l 74 926 l 328 926 m 716 676 l 592 430 l 777 0 l 496 0 l 337 441 l 452 676 l 716 676 z "},"l":{"ha":402,"x_min":74,"x_max":328,"o":"m 328 926 l 328 0 l 74 0 l 74 926 l 328 926 z "},"m":{"ha":1076,"x_min":74,"x_max":1002,"o":"m 1002 0 l 748 0 l 748 365 q 739 423 748 407 q 707 439 730 439 q 665 364 665 439 l 665 0 l 411 0 l 411 365 q 402 423 411 407 q 370 439 393 439 q 328 364 328 439 l 328 0 l 74 0 l 74 416 q 151 610 74 530 q 336 690 227 690 q 538 595 449 690 q 738 690 638 690 q 941 597 865 690 q 1002 388 1002 526 l 1002 0 z "},"n":{"ha":751,"x_min":74,"x_max":677,"o":"m 677 0 l 423 0 l 423 382 q 375 440 423 440 q 328 382 328 440 l 328 0 l 74 0 l 74 377 q 161 600 74 509 q 376 690 249 690 q 608 585 521 690 q 677 357 677 503 l 677 0 z "},"o":{"ha":776,"x_min":33,"x_max":744,"o":"m 395 690 q 641 587 538 690 q 744 339 744 484 q 640 90 744 193 q 389 -14 536 -14 q 137 90 241 -14 q 33 339 33 193 q 137 589 33 488 q 395 690 241 690 m 388 440 q 319 411 347 440 q 290 338 290 381 q 319 267 290 296 q 388 237 348 237 q 457 267 429 237 q 486 338 486 296 q 458 411 486 381 q 388 440 429 440 z "},"p":{"ha":804,"x_min":59,"x_max":766,"o":"m 313 -250 l 59 -250 l 59 314 q 140 567 59 469 q 259 656 187 623 q 408 690 332 690 q 663 588 559 690 q 766 338 766 486 q 663 90 766 195 q 419 -14 560 -14 q 351 -9 396 -14 l 351 270 q 414 245 382 245 q 481 274 453 245 q 509 343 509 303 q 480 411 509 383 q 410 439 451 439 q 313 304 313 439 l 313 -250 z "},"q":{"ha":804,"x_min":37,"x_max":744,"o":"m 490 -250 l 490 304 q 392 439 490 439 q 323 411 352 439 q 294 343 294 383 q 322 274 294 303 q 389 245 350 245 q 452 270 420 245 l 452 -9 q 384 -14 407 -14 q 140 90 243 -14 q 37 338 37 195 q 140 588 37 486 q 395 690 244 690 q 544 656 471 690 q 663 567 616 623 q 744 314 744 469 l 744 -250 l 490 -250 z "},"r":{"ha":446,"x_min":74,"x_max":445,"o":"m 445 683 l 445 412 q 397 427 418 427 q 328 321 328 427 l 328 0 l 74 0 l 74 370 q 154 603 74 516 q 368 690 234 690 q 445 683 397 690 z "},"s":{"ha":507,"x_min":9,"x_max":498,"o":"m 498 667 l 498 399 q 424 379 444 399 q 399 300 404 359 q 247 24 381 104 q 45 -18 176 -18 l 9 -18 l 9 250 l 21 250 q 108 276 82 250 q 138 365 134 301 q 158 511 144 469 q 214 594 172 553 q 421 667 289 667 l 498 667 z "},"t":{"ha":465,"x_min":46,"x_max":418,"o":"m 300 926 l 300 667 l 414 667 l 414 399 l 300 399 q 325 288 300 318 q 418 257 351 257 l 418 -9 q 389 -10 399 -10 q 227 30 303 -10 q 104 138 151 70 q 46 370 46 226 l 46 926 l 300 926 z "},"u":{"ha":751,"x_min":74,"x_max":677,"o":"m 74 667 l 328 667 l 328 285 q 376 227 328 227 q 423 285 423 227 l 423 667 l 677 667 l 677 290 q 589 67 677 158 q 375 -23 502 -23 q 142 82 231 -23 q 74 310 74 164 l 74 667 z "},"v":{"ha":535,"x_min":-46,"x_max":582,"o":"m 582 676 l 266 -26 l -46 676 l 196 676 l 268 494 l 347 676 l 582 676 z "},"w":{"ha":1076,"x_min":74,"x_max":1002,"o":"m 74 667 l 328 667 l 328 302 q 336 243 328 260 q 368 227 345 227 q 411 302 411 227 l 411 667 l 665 667 l 665 302 q 674 243 665 260 q 706 227 683 227 q 748 302 748 227 l 748 667 l 1002 667 l 1002 250 q 925 57 1002 136 q 739 -23 848 -23 q 537 72 627 -23 q 338 -23 438 -23 q 134 69 211 -23 q 74 279 74 142 l 74 667 z "},"x":{"ha":733,"x_min":65,"x_max":669,"o":"m 415 676 l 669 676 l 669 528 q 650 425 669 464 q 586 356 631 386 q 650 288 632 325 q 669 190 669 250 l 669 0 l 415 0 l 415 204 q 366 274 415 274 q 319 214 319 274 l 319 0 l 65 0 l 65 180 q 88 282 65 243 q 167 356 111 321 q 88 433 111 393 q 65 537 65 474 l 65 676 l 319 676 l 319 505 q 332 462 319 479 q 367 445 346 445 q 415 505 415 445 l 415 676 z "},"y":{"ha":745,"x_min":65,"x_max":671,"o":"m 161 -296 l 161 -76 q 252 -98 213 -98 q 412 41 375 -98 q 281 2 345 2 q 126 72 187 2 q 65 251 65 142 l 65 676 l 319 676 l 319 313 q 369 252 319 252 q 417 319 417 252 l 417 676 l 671 676 l 671 73 q 576 -200 671 -96 q 302 -323 463 -323 q 161 -296 231 -323 z "},"z":{"ha":688,"x_min":9,"x_max":669,"o":"m 638 676 l 431 266 l 669 266 l 669 0 l 18 0 l 224 412 l 9 412 l 9 676 l 638 676 z "},"{":{"ha":509,"x_min":47,"x_max":462,"o":"m 256 375 q 317 311 300 346 q 334 212 334 276 l 334 73 l 334 58 q 352 -3 334 9 q 442 -15 371 -15 l 462 -15 l 462 -182 q 418 -183 439 -182 l 340 -187 l 292 -185 q 157 -137 196 -179 q 117 0 117 -96 l 117 182 q 101 260 117 235 q 47 293 85 286 l 47 471 q 113 528 106 482 l 117 559 q 117 568 117 566 l 117 749 q 164 895 117 854 q 329 936 210 936 l 368 935 l 418 933 l 462 932 l 462 760 l 432 761 q 352 748 370 761 q 334 688 334 734 l 334 673 l 334 538 q 318 440 334 473 q 256 375 303 408 z "},"|":{"ha":694,"x_min":222,"x_max":472,"o":"m 222 926 l 472 926 l 472 -231 l 222 -231 l 222 926 z "},"}":{"ha":509,"x_min":47,"x_max":462,"o":"m 252 374 q 192 437 208 402 q 175 536 175 472 l 175 676 l 175 691 q 156 751 175 739 q 66 764 138 764 l 47 763 l 47 930 q 90 932 69 930 l 169 936 l 217 934 q 391 748 391 934 l 391 566 q 407 488 391 513 q 462 456 423 463 l 462 278 q 396 220 402 266 l 393 190 q 391 180 391 182 l 391 -1 q 345 -147 391 -106 q 180 -188 298 -188 l 141 -187 l 90 -185 l 47 -184 l 47 -12 l 77 -13 q 157 1 139 -13 q 175 60 175 14 l 175 75 l 175 210 q 190 308 175 276 q 252 374 205 340 z "},"~":{"ha":926,"x_min":128,"x_max":802,"o":"m 247 751 l 128 851 q 345 1054 208 1054 q 497 1010 385 1054 q 595 979 574 979 q 684 1057 642 979 l 802 958 q 708 803 758 848 q 584 757 659 757 q 429 802 539 757 q 334 830 360 830 q 247 751 289 830 z "},"Ä":{"ha":822,"x_min":74,"x_max":748,"o":"m 429 465 l 429 220 l 349 220 l 349 0 l 74 0 l 74 589 q 167 854 74 760 q 429 949 260 949 q 670 863 592 949 q 748 598 748 777 l 748 0 l 473 0 l 473 580 q 460 655 473 634 q 414 676 447 676 q 349 580 349 676 l 349 465 l 429 465 m 252 1227 q 338 1191 302 1227 q 374 1105 374 1156 q 338 1019 374 1055 q 252 983 302 983 q 166 1019 201 983 q 130 1105 130 1055 q 166 1191 130 1156 q 252 1227 201 1227 m 570 1227 q 656 1191 621 1227 q 692 1105 692 1156 q 656 1019 692 1055 q 570 983 621 983 q 484 1019 519 983 q 448 1105 448 1055 q 484 1191 448 1156 q 570 1227 519 1227 z "},"Å":{"ha":822,"x_min":74,"x_max":748,"o":"m 429 465 l 429 220 l 349 220 l 349 0 l 74 0 l 74 589 q 167 854 74 760 q 429 949 260 949 q 670 863 592 949 q 748 598 748 777 l 748 0 l 473 0 l 473 580 q 460 655 473 634 q 414 676 447 676 q 349 580 349 676 l 349 465 l 429 465 m 411 1249 q 504 1210 465 1249 q 542 1118 542 1172 q 504 1026 542 1064 q 411 987 465 987 q 318 1026 357 987 q 280 1118 280 1064 q 318 1210 280 1172 q 411 1249 357 1249 m 410 1160 q 381 1147 393 1160 q 368 1118 368 1135 q 380 1088 368 1101 q 410 1076 393 1076 q 440 1088 428 1076 q 453 1118 453 1101 q 440 1147 453 1135 q 410 1160 428 1160 z "},"Ç":{"ha":1044,"x_min":37,"x_max":1007,"o":"m 646 -9 q 458 -257 618 -172 l 340 -136 q 408 -10 399 -75 q 138 158 239 29 q 37 460 37 286 q 179 808 37 667 q 529 949 321 949 q 871 810 734 949 q 1005 544 966 715 l 710 524 q 522 676 661 676 q 377 615 434 676 q 319 460 319 554 q 376 310 319 369 q 518 250 432 250 q 657 302 606 250 q 719 452 709 355 l 1007 445 q 646 -9 959 67 z "},"É":{"ha":669,"x_min":74,"x_max":690,"o":"m 587 566 l 587 359 l 407 359 q 355 349 370 359 q 340 312 340 338 q 355 274 340 283 q 419 264 371 264 l 604 264 l 604 0 l 388 0 q 155 73 235 0 q 74 283 74 146 l 74 646 q 150 852 74 779 q 365 926 227 926 l 604 926 l 604 660 l 429 660 q 357 614 357 660 q 374 576 357 587 q 435 566 391 566 l 587 566 m 690 1187 l 500 1002 l 332 1002 l 500 1187 l 690 1187 z "},"Ñ":{"ha":818,"x_min":74,"x_max":743,"o":"m 74 0 l 74 601 q 169 854 74 759 q 420 949 263 949 q 660 857 577 949 q 743 591 743 764 l 743 0 l 468 0 l 468 591 q 408 676 468 676 q 349 591 349 676 l 349 0 l 74 0 m 487 1183 l 606 1183 q 571 1050 602 1099 q 490 1002 540 1002 q 401 1034 458 1002 q 364 1048 375 1048 q 338 1007 342 1048 l 211 1007 q 340 1188 228 1188 q 410 1167 372 1188 l 437 1153 q 465 1144 453 1144 q 487 1173 487 1144 q 487 1183 487 1179 z "},"Ö":{"ha":1046,"x_min":37,"x_max":1010,"o":"m 532 949 q 869 806 728 949 q 1010 463 1010 663 q 868 119 1010 260 q 524 -23 726 -23 q 180 119 322 -23 q 37 463 37 262 q 181 808 37 667 q 532 949 324 949 m 524 676 q 379 614 439 676 q 319 463 319 551 q 379 313 319 375 q 524 250 439 250 q 668 312 609 250 q 728 463 728 374 q 668 614 728 552 q 524 676 609 676 m 364 1227 q 450 1191 414 1227 q 486 1105 486 1156 q 450 1019 486 1055 q 364 983 414 983 q 278 1019 313 983 q 242 1105 242 1055 q 278 1191 242 1156 q 364 1227 313 1227 m 683 1227 q 769 1191 733 1227 q 804 1105 804 1156 q 769 1019 804 1055 q 683 983 733 983 q 596 1019 632 983 q 561 1105 561 1055 q 596 1191 561 1156 q 683 1227 632 1227 z "},"Ü":{"ha":818,"x_min":74,"x_max":743,"o":"m 743 926 l 743 326 q 649 72 743 167 q 397 -23 554 -23 q 157 69 240 -23 q 74 334 74 161 l 74 926 l 349 926 l 349 335 q 410 250 349 250 q 468 335 468 250 l 468 926 l 743 926 m 249 1227 q 335 1191 300 1227 q 371 1105 371 1156 q 335 1019 371 1055 q 249 983 300 983 q 163 1019 199 983 q 127 1105 127 1055 q 163 1191 127 1156 q 249 1227 199 1227 m 568 1227 q 654 1191 618 1227 q 690 1105 690 1156 q 654 1019 690 1055 q 568 983 618 983 q 482 1019 517 983 q 446 1105 446 1055 q 482 1191 446 1156 q 568 1227 517 1227 z "},"á":{"ha":817,"x_min":37,"x_max":743,"o":"m 450 254 l 450 -9 q 393 -14 418 -14 q 138 86 240 -14 q 37 338 37 186 q 139 587 37 485 q 389 690 242 690 q 648 594 553 690 q 743 332 743 498 l 743 0 l 489 0 l 489 313 q 463 399 489 367 q 393 431 437 431 q 323 401 353 431 q 294 332 294 372 q 321 263 294 290 q 388 236 347 236 q 450 254 421 236 m 446 901 l 606 901 l 446 744 l 302 744 l 446 901 z "},"à":{"ha":817,"x_min":37,"x_max":743,"o":"m 450 254 l 450 -9 q 393 -14 418 -14 q 138 86 240 -14 q 37 338 37 186 q 139 587 37 485 q 389 690 242 690 q 648 594 553 690 q 743 332 743 498 l 743 0 l 489 0 l 489 313 q 463 399 489 367 q 393 431 437 431 q 323 401 353 431 q 294 332 294 372 q 321 263 294 290 q 388 236 347 236 q 450 254 421 236 m 371 901 l 514 744 l 371 744 l 210 901 l 371 901 z "},"â":{"ha":817,"x_min":37,"x_max":743,"o":"m 450 254 l 450 -9 q 393 -14 418 -14 q 138 86 240 -14 q 37 338 37 186 q 139 587 37 485 q 389 690 242 690 q 648 594 553 690 q 743 332 743 498 l 743 0 l 489 0 l 489 313 q 463 399 489 367 q 393 431 437 431 q 323 401 353 431 q 294 332 294 372 q 321 263 294 290 q 388 236 347 236 q 450 254 421 236 m 404 923 l 593 741 l 434 741 l 404 774 l 369 741 l 224 741 l 404 923 z "},"ä":{"ha":817,"x_min":37,"x_max":743,"o":"m 450 254 l 450 -9 q 393 -14 418 -14 q 138 86 240 -14 q 37 338 37 186 q 139 587 37 485 q 389 690 242 690 q 648 594 553 690 q 743 332 743 498 l 743 0 l 489 0 l 489 313 q 463 399 489 367 q 393 431 437 431 q 323 401 353 431 q 294 332 294 372 q 321 263 294 290 q 388 236 347 236 q 450 254 421 236 m 238 976 q 331 942 294 976 q 368 858 368 909 q 329 770 368 808 q 237 732 290 732 q 149 770 186 732 q 111 858 111 808 q 149 941 111 906 q 238 976 186 976 m 577 975 q 670 941 633 975 q 707 857 707 907 q 668 769 707 806 q 576 731 629 731 q 488 769 526 731 q 450 857 450 806 q 488 940 450 905 q 577 975 526 975 z "},"ã":{"ha":817,"x_min":37,"x_max":743,"o":"m 450 254 l 450 -9 q 393 -14 418 -14 q 138 86 240 -14 q 37 338 37 186 q 139 587 37 485 q 389 690 242 690 q 648 594 553 690 q 743 332 743 498 l 743 0 l 489 0 l 489 313 q 463 399 489 367 q 393 431 437 431 q 323 401 353 431 q 294 332 294 372 q 321 263 294 290 q 388 236 347 236 q 450 254 421 236 m 474 897 l 578 897 q 547 784 578 828 q 465 740 515 740 q 411 756 437 740 l 380 775 q 366 780 374 779 q 339 745 345 781 l 238 745 q 268 859 238 818 q 351 899 297 899 q 403 884 378 899 l 430 867 q 447 862 437 863 q 474 897 470 861 z "},"å":{"ha":817,"x_min":37,"x_max":743,"o":"m 450 254 l 450 -9 q 393 -14 418 -14 q 138 86 240 -14 q 37 338 37 186 q 139 587 37 485 q 389 690 242 690 q 648 594 553 690 q 743 332 743 498 l 743 0 l 489 0 l 489 313 q 463 399 489 367 q 393 431 437 431 q 323 401 353 431 q 294 332 294 372 q 321 263 294 290 q 388 236 347 236 q 450 254 421 236 m 408 997 q 500 959 462 997 q 538 866 538 920 q 500 773 538 812 q 408 735 462 735 q 316 773 354 735 q 277 866 277 812 q 316 959 277 920 q 408 997 354 997 m 408 908 q 378 896 390 908 q 366 866 366 884 q 378 836 366 848 q 408 824 390 824 q 437 836 425 824 q 449 866 449 848 q 437 896 449 884 q 408 908 425 908 z "},"ç":{"ha":777,"x_min":37,"x_max":741,"o":"m 507 5 q 345 -191 489 -128 l 253 -98 q 290 -11 290 -50 l 290 1 q 105 130 174 37 q 37 345 37 222 q 141 589 37 487 q 390 690 245 690 q 614 610 517 690 q 734 406 711 530 l 477 397 q 393 440 445 440 q 322 412 350 440 q 294 340 294 383 q 324 266 294 296 q 397 236 353 236 q 489 311 461 236 l 741 321 q 671 124 732 207 q 507 5 609 41 z "},"é":{"ha":770,"x_min":37,"x_max":741,"o":"m 739 297 l 354 297 q 345 351 345 326 q 357 417 345 385 l 486 417 q 401 492 473 492 q 324 452 354 492 q 294 349 294 412 q 323 242 294 283 q 399 201 352 201 q 472 239 437 201 l 616 66 q 392 -14 515 -14 q 139 87 241 -14 q 37 338 37 189 q 140 589 37 486 q 394 691 243 691 q 641 591 541 691 q 741 345 741 491 q 739 297 741 330 m 459 901 l 620 901 l 459 744 l 316 744 l 459 901 z "},"è":{"ha":770,"x_min":37,"x_max":741,"o":"m 739 297 l 354 297 q 345 351 345 326 q 357 417 345 385 l 486 417 q 401 492 473 492 q 324 452 354 492 q 294 349 294 412 q 323 242 294 283 q 399 201 352 201 q 472 239 437 201 l 616 66 q 392 -14 515 -14 q 139 87 241 -14 q 37 338 37 189 q 140 589 37 486 q 394 691 243 691 q 641 591 541 691 q 741 345 741 491 q 739 297 741 330 m 347 901 l 490 744 l 347 744 l 186 901 l 347 901 z "},"ê":{"ha":770,"x_min":37,"x_max":741,"o":"m 739 297 l 354 297 q 345 351 345 326 q 357 417 345 385 l 486 417 q 401 492 473 492 q 324 452 354 492 q 294 349 294 412 q 323 242 294 283 q 399 201 352 201 q 472 239 437 201 l 616 66 q 392 -14 515 -14 q 139 87 241 -14 q 37 338 37 189 q 140 589 37 486 q 394 691 243 691 q 641 591 541 691 q 741 345 741 491 q 739 297 741 330 m 380 923 l 569 741 l 410 741 l 380 774 l 345 741 l 200 741 l 380 923 z "},"ë":{"ha":770,"x_min":37,"x_max":741,"o":"m 739 297 l 354 297 q 345 351 345 326 q 357 417 345 385 l 486 417 q 401 492 473 492 q 324 452 354 492 q 294 349 294 412 q 323 242 294 283 q 399 201 352 201 q 472 239 437 201 l 616 66 q 392 -14 515 -14 q 139 87 241 -14 q 37 338 37 189 q 140 589 37 486 q 394 691 243 691 q 641 591 541 691 q 741 345 741 491 q 739 297 741 330 m 214 976 q 307 942 270 976 q 345 858 345 909 q 305 770 345 808 q 213 732 266 732 q 125 770 163 732 q 87 858 87 808 q 125 941 87 906 q 214 976 163 976 m 553 975 q 646 941 609 975 q 684 857 684 907 q 644 769 684 806 q 552 731 605 731 q 464 769 502 731 q 427 857 427 806 q 464 940 427 905 q 553 975 502 975 z "},"í":{"ha":402,"x_min":74,"x_max":399,"o":"m 328 676 l 328 0 l 74 0 l 74 676 l 328 676 m 239 901 l 399 901 l 239 744 l 96 744 l 239 901 z "},"ì":{"ha":402,"x_min":3,"x_max":328,"o":"m 328 676 l 328 0 l 74 0 l 74 676 l 328 676 m 164 901 l 307 744 l 164 744 l 3 901 l 164 901 z "},"î":{"ha":402,"x_min":17,"x_max":386,"o":"m 197 923 l 386 741 l 227 741 l 197 774 l 162 741 l 17 741 l 197 923 m 328 676 l 328 0 l 74 0 l 74 676 l 328 676 z "},"ï":{"ha":402,"x_min":-62,"x_max":465,"o":"m 328 676 l 328 0 l 74 0 l 74 676 l 328 676 m 52 962 q 135 931 102 962 q 169 856 169 901 q 133 777 169 810 q 51 743 98 743 q -28 777 5 743 q -62 856 -62 810 q -29 930 -62 899 q 52 962 5 962 m 347 960 q 431 930 397 960 q 465 854 465 900 q 429 775 465 809 q 347 741 393 741 q 267 775 301 741 q 233 854 233 809 q 267 929 233 897 q 347 960 301 960 z "},"ñ":{"ha":751,"x_min":74,"x_max":677,"o":"m 677 0 l 423 0 l 423 382 q 375 440 423 440 q 328 382 328 440 l 328 0 l 74 0 l 74 377 q 161 600 74 509 q 376 690 249 690 q 608 585 521 690 q 677 357 677 503 l 677 0 m 441 897 l 546 897 q 514 784 546 828 q 433 740 482 740 q 378 756 405 740 l 348 775 q 334 780 341 779 q 307 745 313 781 l 205 745 q 235 859 205 818 q 318 899 264 899 q 370 884 345 899 l 397 867 q 414 862 405 863 q 441 897 437 861 z "},"ó":{"ha":776,"x_min":33,"x_max":744,"o":"m 395 690 q 641 587 538 690 q 744 339 744 484 q 640 90 744 193 q 389 -14 536 -14 q 137 90 241 -14 q 33 339 33 193 q 137 589 33 488 q 395 690 241 690 m 388 440 q 319 411 347 440 q 290 338 290 381 q 319 267 290 296 q 388 237 348 237 q 457 267 429 237 q 486 338 486 296 q 458 411 486 381 q 388 440 429 440 m 425 901 l 586 901 l 425 744 l 282 744 l 425 901 z "},"ò":{"ha":776,"x_min":33,"x_max":744,"o":"m 395 690 q 641 587 538 690 q 744 339 744 484 q 640 90 744 193 q 389 -14 536 -14 q 137 90 241 -14 q 33 339 33 193 q 137 589 33 488 q 395 690 241 690 m 388 440 q 319 411 347 440 q 290 338 290 381 q 319 267 290 296 q 388 237 348 237 q 457 267 429 237 q 486 338 486 296 q 458 411 486 381 q 388 440 429 440 m 351 901 l 494 744 l 351 744 l 190 901 l 351 901 z "},"ô":{"ha":776,"x_min":33,"x_max":744,"o":"m 395 690 q 641 587 538 690 q 744 339 744 484 q 640 90 744 193 q 389 -14 536 -14 q 137 90 241 -14 q 33 339 33 193 q 137 589 33 488 q 395 690 241 690 m 388 440 q 319 411 347 440 q 290 338 290 381 q 319 267 290 296 q 388 237 348 237 q 457 267 429 237 q 486 338 486 296 q 458 411 486 381 q 388 440 429 440 m 383 923 l 572 741 l 414 741 l 383 774 l 349 741 l 203 741 l 383 923 z "},"ö":{"ha":776,"x_min":33,"x_max":744,"o":"m 395 690 q 641 587 538 690 q 744 339 744 484 q 640 90 744 193 q 389 -14 536 -14 q 137 90 241 -14 q 33 339 33 193 q 137 589 33 488 q 395 690 241 690 m 388 440 q 319 411 347 440 q 290 338 290 381 q 319 267 290 296 q 388 237 348 237 q 457 267 429 237 q 486 338 486 296 q 458 411 486 381 q 388 440 429 440 m 217 976 q 310 942 273 976 q 347 858 347 909 q 308 770 347 808 q 216 732 269 732 q 128 770 165 732 q 90 858 90 808 q 128 941 90 906 q 217 976 165 976 m 556 975 q 649 941 612 975 q 686 857 686 907 q 647 769 686 806 q 555 731 608 731 q 467 769 505 731 q 429 857 429 806 q 467 940 429 905 q 556 975 505 975 z "},"õ":{"ha":776,"x_min":33,"x_max":744,"o":"m 395 690 q 641 587 538 690 q 744 339 744 484 q 640 90 744 193 q 389 -14 536 -14 q 137 90 241 -14 q 33 339 33 193 q 137 589 33 488 q 395 690 241 690 m 388 440 q 319 411 347 440 q 290 338 290 381 q 319 267 290 296 q 388 237 348 237 q 457 267 429 237 q 486 338 486 296 q 458 411 486 381 q 388 440 429 440 m 454 897 l 558 897 q 526 784 558 828 q 445 740 494 740 q 391 756 417 740 l 360 775 q 346 780 353 779 q 319 745 325 781 l 218 745 q 247 859 218 818 q 330 899 277 899 q 382 884 357 899 l 410 867 q 427 862 417 863 q 454 897 450 861 z "},"ú":{"ha":751,"x_min":74,"x_max":677,"o":"m 74 667 l 328 667 l 328 285 q 376 227 328 227 q 423 285 423 227 l 423 667 l 677 667 l 677 290 q 589 67 677 158 q 375 -23 502 -23 q 142 82 231 -23 q 74 310 74 164 l 74 667 m 413 901 l 574 901 l 413 744 l 270 744 l 413 901 z "},"ù":{"ha":751,"x_min":74,"x_max":677,"o":"m 74 667 l 328 667 l 328 285 q 376 227 328 227 q 423 285 423 227 l 423 667 l 677 667 l 677 290 q 589 67 677 158 q 375 -23 502 -23 q 142 82 231 -23 q 74 310 74 164 l 74 667 m 338 901 l 481 744 l 338 744 l 178 901 l 338 901 z "},"û":{"ha":751,"x_min":74,"x_max":677,"o":"m 74 667 l 328 667 l 328 285 q 376 227 328 227 q 423 285 423 227 l 423 667 l 677 667 l 677 290 q 589 67 677 158 q 375 -23 502 -23 q 142 82 231 -23 q 74 310 74 164 l 74 667 m 371 923 l 560 741 l 401 741 l 371 774 l 336 741 l 191 741 l 371 923 z "},"ü":{"ha":751,"x_min":74,"x_max":677,"o":"m 74 667 l 328 667 l 328 285 q 376 227 328 227 q 423 285 423 227 l 423 667 l 677 667 l 677 290 q 589 67 677 158 q 375 -23 502 -23 q 142 82 231 -23 q 74 310 74 164 l 74 667 m 205 976 q 298 942 260 976 q 335 858 335 909 q 296 770 335 808 q 203 732 256 732 q 116 770 153 732 q 78 858 78 808 q 116 941 78 906 q 205 976 153 976 m 544 975 q 637 941 600 975 q 674 857 674 907 q 635 769 674 806 q 543 731 595 731 q 455 769 492 731 q 417 857 417 806 q 455 940 417 905 q 544 975 492 975 z "},"†":{"ha":694,"x_min":123,"x_max":571,"o":"m 460 -176 l 234 -176 l 234 412 l 123 412 l 123 667 l 234 667 l 234 926 l 460 926 l 460 667 l 571 667 l 571 412 l 460 412 l 460 -176 z "},"°":{"ha":545,"x_min":35,"x_max":511,"o":"m 272 949 q 442 879 373 949 q 511 707 511 809 q 440 540 511 609 q 270 471 370 471 q 104 542 174 471 q 35 709 35 612 q 104 879 35 808 q 272 949 174 949 m 273 840 q 184 802 221 840 q 146 710 146 763 q 183 619 146 658 q 270 581 220 581 q 361 618 323 581 q 399 709 399 656 q 361 801 399 762 q 273 840 323 840 z "},"¢":{"ha":789,"x_min":174,"x_max":616,"o":"m 616 734 l 616 542 q 561 553 585 553 q 483 519 516 553 q 450 439 450 486 q 484 357 450 391 q 564 323 517 323 q 616 334 587 323 l 616 138 q 549 119 573 123 l 549 0 l 316 0 l 316 168 q 174 434 174 269 q 316 705 174 599 l 316 922 l 549 922 l 549 754 q 616 734 587 747 z "},"£":{"ha":789,"x_min":71,"x_max":718,"o":"m 671 260 l 671 0 l 71 0 l 154 229 l 171 273 q 198 382 193 333 l 137 382 l 137 509 l 177 509 q 144 654 144 582 q 228 858 144 772 q 430 944 313 944 q 634 863 549 944 q 718 668 718 782 l 718 638 l 493 638 l 493 646 l 492 658 q 445 702 490 702 q 407 683 422 702 q 391 637 391 664 q 409 569 391 611 q 433 509 424 534 l 574 509 l 574 382 l 437 382 q 411 260 435 340 l 671 260 z "},"§":{"ha":713,"x_min":41,"x_max":672,"o":"m 41 -57 l 179 91 q 277 12 244 32 q 344 -8 311 -8 q 386 4 368 -8 q 404 31 404 16 q 340 83 401 57 q 113 214 173 154 q 53 372 53 275 q 168 568 53 496 q 80 724 80 639 q 161 884 80 820 q 363 949 242 949 q 644 830 522 949 l 524 692 q 381 758 446 758 q 331 721 331 758 q 374 680 331 696 l 410 666 q 613 547 553 610 q 672 387 672 484 q 571 193 672 269 q 654 28 654 122 q 570 -142 654 -75 q 357 -208 486 -208 q 41 -57 177 -208 m 364 435 q 327 420 342 435 q 312 384 312 405 q 327 347 312 362 q 364 332 342 332 q 401 347 386 332 q 416 384 416 362 q 401 420 416 405 q 364 435 386 435 z "},"•":{"ha":926,"x_min":272,"x_max":657,"o":"m 465 663 q 601 607 545 663 q 657 471 657 551 q 601 334 657 391 q 465 278 545 278 q 328 334 385 278 q 272 471 272 391 q 328 607 272 551 q 465 663 385 663 z "},"¶":{"ha":1040,"x_min":53,"x_max":801,"o":"m 461 -176 l 461 579 q 373 701 461 701 q 310 676 336 701 q 284 615 284 650 q 310 552 284 578 q 370 526 335 526 q 427 548 398 526 l 427 297 q 366 293 386 293 q 145 387 238 293 q 53 610 53 481 q 146 834 53 743 q 376 926 240 926 l 478 926 l 801 926 l 801 -176 l 671 -176 l 671 713 l 595 713 l 595 -176 l 461 -176 z "},"ß":{"ha":789,"x_min":66,"x_max":744,"o":"m 359 383 l 359 555 l 374 554 q 439 573 415 554 q 463 625 463 592 q 443 674 463 655 q 391 694 422 694 q 320 616 320 694 l 320 0 l 66 0 l 66 654 q 152 859 66 774 q 360 943 238 943 q 572 861 488 943 q 656 654 656 779 q 607 496 656 576 q 713 392 682 444 q 744 265 744 340 q 658 63 744 149 q 455 -23 572 -23 q 359 -5 406 -23 l 359 212 q 409 202 387 202 q 469 227 445 202 q 494 290 494 252 q 462 356 494 334 q 359 383 431 378 z "},"®":{"ha":1040,"x_min":33,"x_max":1006,"o":"m 467 585 l 467 203 l 302 203 l 302 730 l 509 730 q 658 682 602 730 q 714 555 714 634 q 644 420 714 474 l 736 203 l 573 203 l 495 374 l 495 511 l 505 511 q 548 550 548 511 q 493 585 548 585 l 467 585 m 528 949 q 864 805 723 949 q 1006 463 1006 661 q 863 119 1006 262 q 519 -23 721 -23 q 176 119 318 -23 q 33 463 33 262 q 177 808 33 667 q 528 949 320 949 m 526 871 q 232 753 353 871 q 111 463 111 634 q 231 175 111 294 q 519 55 351 55 q 809 175 689 55 q 928 463 928 294 q 809 751 928 630 q 526 871 690 871 z "},"©":{"ha":1040,"x_min":33,"x_max":1006,"o":"m 630 450 l 802 445 q 712 257 785 323 q 519 191 638 191 q 317 270 397 191 q 236 469 236 349 q 319 663 236 583 q 519 743 403 743 q 702 686 630 743 q 801 519 774 629 l 625 509 q 520 585 597 585 q 437 551 469 585 q 404 465 404 517 q 436 382 404 415 q 517 349 468 349 q 630 450 619 349 m 528 949 q 864 805 723 949 q 1006 463 1006 661 q 863 119 1006 262 q 519 -23 721 -23 q 176 119 318 -23 q 33 463 33 262 q 177 808 33 667 q 528 949 320 949 m 526 871 q 232 753 353 871 q 111 463 111 634 q 231 175 111 294 q 519 55 351 55 q 809 175 689 55 q 928 463 928 294 q 809 751 928 630 q 526 871 690 871 z "},"™":{"ha":1069,"x_min":3,"x_max":1028,"o":"m 290 770 l 290 398 l 125 398 l 125 770 l 3 770 l 3 925 l 412 925 l 412 770 l 290 770 m 456 398 l 456 777 q 500 893 456 848 q 614 938 545 938 q 743 866 699 938 q 877 938 792 938 q 989 893 950 938 q 1028 763 1028 848 l 1028 398 l 864 398 l 864 740 q 846 779 864 779 q 825 750 825 779 l 825 743 l 825 398 l 661 398 l 661 740 q 642 779 661 779 q 620 740 620 779 l 620 398 l 456 398 z "},"´":{"ha":694,"x_min":241,"x_max":545,"o":"m 385 901 l 545 901 l 385 744 l 241 744 l 385 901 z "},"¨":{"ha":694,"x_min":50,"x_max":646,"o":"m 176 976 q 269 942 232 976 q 307 858 307 909 q 267 770 307 808 q 175 732 228 732 q 87 770 125 732 q 50 858 50 808 q 87 941 50 906 q 176 976 125 976 m 515 975 q 608 941 571 975 q 646 857 646 907 q 606 769 646 806 q 514 731 567 731 q 426 769 464 731 q 389 857 389 806 q 426 940 389 905 q 515 975 464 975 z "},"≠":{"ha":694,"x_min":46,"x_max":648,"o":"m 351 684 l 450 868 l 602 783 l 546 684 l 648 684 l 648 477 l 463 477 l 409 382 l 647 382 l 647 176 l 334 176 l 250 24 l 98 109 l 138 176 l 46 176 l 46 382 l 214 382 l 268 477 l 47 477 l 47 684 l 351 684 z "},"Æ":{"ha":1061,"x_min":74,"x_max":996,"o":"m 979 568 l 979 360 l 799 360 q 732 315 732 360 q 808 266 732 266 l 996 266 l 996 0 l 465 0 l 465 588 q 452 656 465 636 q 410 676 440 676 q 349 600 349 676 l 349 465 l 422 465 l 422 222 l 349 222 l 349 0 l 74 0 l 74 588 q 146 824 74 736 q 264 915 193 881 q 411 949 336 949 q 597 890 511 949 q 752 926 652 926 l 996 926 l 996 663 l 821 663 q 750 616 750 663 q 823 568 750 568 l 979 568 z "},"Ø":{"ha":1047,"x_min":37,"x_max":1010,"o":"m 880 794 q 1010 463 1010 650 q 867 120 1010 262 q 524 -23 724 -23 q 219 84 355 -23 l 140 0 l 97 40 l 176 123 q 37 463 37 267 q 180 806 37 664 q 524 949 322 949 q 840 833 703 949 l 917 916 l 958 878 l 880 794 m 688 588 l 408 288 q 524 250 463 250 q 668 313 608 250 q 728 463 728 375 q 688 588 728 528 m 366 328 l 650 631 q 524 676 589 676 q 379 614 439 676 q 319 463 319 551 q 366 328 319 389 z "},"∞":{"ha":926,"x_min":24,"x_max":902,"o":"m 467 367 q 242 249 368 249 q 85 312 146 249 q 24 474 24 376 q 87 632 24 570 q 246 694 150 694 q 460 577 366 694 q 680 694 553 694 q 840 632 778 694 q 902 471 902 570 q 839 311 902 373 q 677 248 777 248 q 467 367 558 248 m 543 472 q 656 393 599 393 q 713 415 690 393 q 736 472 736 438 q 713 528 736 505 q 655 551 689 551 q 543 472 598 551 m 384 471 q 270 550 328 550 q 213 527 236 550 q 189 471 189 505 q 213 415 189 438 q 271 393 237 393 q 384 471 327 393 z "},"±":{"ha":1040,"x_min":173,"x_max":866,"o":"m 421 474 l 173 474 l 173 665 l 421 665 l 421 926 l 618 926 l 618 665 l 866 665 l 866 474 l 618 474 l 618 251 l 421 251 l 421 474 m 173 183 l 866 183 l 866 0 l 173 0 l 173 183 z "},"≤":{"ha":694,"x_min":46,"x_max":648,"o":"m 648 922 l 648 691 l 316 597 l 648 504 l 648 273 l 46 494 l 46 701 l 648 922 m 648 237 l 648 20 l 46 20 l 46 237 l 648 237 z "},"≥":{"ha":694,"x_min":46,"x_max":648,"o":"m 47 273 l 47 504 l 378 597 l 46 691 l 46 922 l 648 701 l 648 494 l 47 273 m 46 20 l 46 237 l 648 237 l 648 20 l 46 20 z "},"¥":{"ha":789,"x_min":22,"x_max":768,"o":"m 768 926 l 568 578 l 645 578 l 645 449 l 534 449 l 534 393 l 645 393 l 645 264 l 534 264 l 534 0 l 258 0 l 258 264 l 148 264 l 148 393 l 258 393 l 258 449 l 148 449 l 148 578 l 222 578 l 22 926 l 302 926 l 393 735 l 494 926 l 768 926 z "},"µ":{"ha":694,"x_min":33,"x_max":663,"o":"m 33 -239 l 33 667 l 241 667 l 241 329 q 258 221 241 252 q 351 162 288 162 q 454 332 454 162 l 454 667 l 663 667 l 663 0 l 454 0 l 454 80 q 346 -12 419 -12 q 241 64 280 -12 l 241 -239 l 33 -239 z "},"∂":{"ha":694,"x_min":18,"x_max":675,"o":"m 71 739 l 97 920 q 529 752 382 890 q 675 372 675 613 q 585 91 675 193 q 338 -12 495 -12 q 108 79 198 -12 q 18 310 18 170 q 98 516 18 433 q 296 599 178 599 q 452 551 390 599 q 332 675 403 637 q 71 739 237 726 m 345 427 q 260 389 296 427 q 225 300 225 352 q 260 210 225 248 q 344 173 295 173 q 429 210 394 173 q 463 300 463 248 q 429 390 463 354 q 345 427 395 427 z "},"∑":{"ha":926,"x_min":47,"x_max":888,"o":"m 876 1042 l 876 674 l 665 674 l 639 826 l 310 826 l 643 367 l 312 -132 l 651 -132 l 666 28 l 888 28 l 888 -347 l 47 -347 l 47 -99 l 365 366 l 47 793 l 47 1042 l 876 1042 z "},"∏":{"ha":926,"x_min":22,"x_max":903,"o":"m 22 1042 l 903 1042 l 903 854 l 805 854 l 805 -160 l 903 -160 l 903 -347 l 510 -347 l 510 -160 l 595 -160 l 595 854 l 330 854 l 330 -160 l 413 -160 l 413 -347 l 22 -347 l 22 -160 l 122 -160 l 122 854 l 22 854 l 22 1042 z "},"π":{"ha":896,"x_min":28,"x_max":867,"o":"m 129 0 l 129 493 l 28 493 l 28 666 l 867 666 l 867 493 l 767 493 l 767 0 l 548 0 l 548 493 l 348 493 l 348 0 l 129 0 z "},"∫":{"ha":694,"x_min":39,"x_max":656,"o":"m 39 -333 l 76 -111 q 138 -125 112 -125 q 199 -102 176 -125 q 217 -68 213 -87 q 221 3 221 -49 l 221 81 l 221 570 l 221 648 q 228 815 221 768 q 258 904 235 862 q 526 1042 336 1042 q 656 1028 578 1042 l 618 806 q 555 819 583 819 q 491 792 508 819 q 473 691 473 765 l 473 132 q 467 -117 473 -65 q 431 -217 461 -168 q 163 -346 353 -346 q 39 -333 95 -346 z "},"ª":{"ha":530,"x_min":32,"x_max":485,"o":"m 283 688 l 283 528 q 254 526 266 526 q 96 586 159 526 q 32 737 32 647 q 96 887 32 826 q 253 949 161 949 q 415 891 355 949 q 474 734 474 833 l 474 534 l 312 534 l 312 723 q 255 790 312 790 q 214 773 231 790 q 196 734 196 757 q 212 695 196 711 q 250 680 227 680 q 283 688 268 680 m 485 479 l 485 391 l 62 391 l 62 479 l 485 479 z "},"º":{"ha":505,"x_min":29,"x_max":475,"o":"m 252 949 q 410 887 345 949 q 475 738 475 826 q 410 588 475 650 q 252 526 345 526 q 95 588 160 526 q 29 738 29 650 q 94 887 29 826 q 252 949 159 949 m 252 795 q 210 779 227 795 q 193 738 193 762 q 211 696 193 713 q 252 680 228 680 q 293 696 276 680 q 311 738 311 713 q 293 779 311 762 q 252 795 276 795 m 473 479 l 473 391 l 50 391 l 50 479 l 473 479 z "},"Ω":{"ha":926,"x_min":33,"x_max":893,"o":"m 38 0 l 38 203 l 210 203 q 33 509 33 316 q 157 822 33 696 q 463 949 281 949 q 769 822 645 949 q 893 509 893 695 q 716 203 893 316 l 888 203 l 888 0 l 509 0 l 509 187 q 654 473 654 261 q 600 666 654 590 q 463 743 546 743 q 325 666 380 743 q 271 474 271 590 q 416 187 271 262 l 416 0 l 38 0 z "},"æ":{"ha":1222,"x_min":37,"x_max":1194,"o":"m 1190 299 l 795 299 q 786 353 786 332 q 799 418 786 380 l 939 418 q 850 492 923 492 q 770 453 800 492 q 739 350 739 414 q 769 241 739 282 q 848 200 799 200 q 924 241 890 200 l 1068 68 q 847 -14 966 -14 q 730 0 796 -14 l 484 0 l 484 311 q 461 402 484 373 q 392 431 439 431 q 323 401 351 431 q 294 331 294 372 q 321 263 294 291 q 389 236 349 236 q 445 255 414 236 l 445 -10 q 394 -14 409 -14 q 140 88 244 -14 q 37 336 37 189 q 138 584 37 479 q 377 690 239 690 q 610 601 507 690 q 838 690 711 690 q 1090 592 986 690 q 1194 353 1194 494 q 1190 299 1194 336 z "},"ø":{"ha":776,"x_min":15,"x_max":760,"o":"m 671 551 q 743 338 743 451 q 639 90 743 193 q 388 -14 534 -14 q 151 76 255 -14 l 54 -12 l 15 29 l 111 117 q 32 338 32 218 q 135 588 32 486 q 388 690 239 690 q 633 594 532 690 l 722 675 l 760 633 l 671 551 m 486 382 l 333 242 q 388 227 361 227 q 464 260 432 227 q 495 338 495 292 q 486 382 495 357 m 294 284 l 452 428 q 387 449 418 449 q 311 417 342 449 q 280 338 280 385 q 294 284 280 311 z "},"¿":{"ha":737,"x_min":65,"x_max":672,"o":"m 248 332 l 500 332 l 500 289 q 481 164 500 204 q 411 101 462 123 l 366 81 q 313 16 313 58 q 330 -26 313 -9 q 372 -43 347 -43 q 438 50 438 -43 l 672 50 q 616 -152 672 -74 q 506 -244 573 -210 q 367 -278 439 -278 q 152 -193 239 -278 q 65 16 65 -109 q 190 233 65 170 q 239 268 231 253 q 248 332 248 283 m 370 690 q 485 645 439 690 q 530 530 530 600 q 483 415 530 463 q 370 368 436 368 q 255 416 303 368 q 208 531 208 465 q 255 644 208 597 q 370 690 302 690 z "},"¡":{"ha":600,"x_min":139,"x_max":461,"o":"m 170 -254 l 175 320 l 416 320 l 430 -254 l 170 -254 m 301 690 q 416 645 371 690 q 461 530 461 600 q 414 415 461 463 q 301 368 368 368 q 187 416 235 368 q 139 531 139 465 q 186 644 139 597 q 301 690 234 690 z "},"¬":{"ha":694,"x_min":46,"x_max":648,"o":"m 406 0 l 406 194 l 46 194 l 46 411 l 648 411 l 648 0 l 406 0 z "},"√":{"ha":926,"x_min":0,"x_max":926,"o":"m 926 1148 l 926 955 l 704 955 l 474 0 l 199 0 l 127 337 l 0 337 l 0 530 l 260 530 l 291 399 q 315 198 305 340 l 328 198 q 403 619 348 395 l 532 1148 l 926 1148 z "},"ƒ":{"ha":789,"x_min":50,"x_max":740,"o":"m 555 618 l 667 618 l 621 353 l 508 353 l 480 197 q 418 31 463 99 q 264 -112 359 -56 q 76 -167 170 -167 l 50 -166 l 96 100 l 109 100 q 189 132 157 100 q 231 221 220 163 l 309 667 q 390 859 330 780 q 539 984 451 937 q 713 1031 628 1031 l 740 1030 l 693 764 q 680 764 685 764 q 579 705 613 764 q 555 618 566 683 z "},"≈":{"ha":694,"x_min":10,"x_max":684,"o":"m 129 484 l 10 568 q 227 770 90 770 q 379 726 267 770 l 430 706 q 477 696 456 696 q 522 708 504 696 q 566 758 539 720 l 684 674 q 590 519 640 565 q 466 473 541 473 q 311 518 420 473 q 214 546 243 546 q 129 484 172 546 m 129 158 l 10 241 q 227 444 90 444 q 379 400 268 444 l 430 380 q 477 370 456 370 q 566 432 522 370 l 684 349 q 590 193 640 239 q 467 147 541 147 q 311 192 420 147 q 214 220 243 220 q 129 158 172 220 z "},"∆":{"ha":914,"x_min":12,"x_max":901,"o":"m 12 0 l 334 926 l 577 926 l 901 0 l 12 0 m 311 203 l 598 203 l 457 679 l 311 203 z "},"«":{"ha":517,"x_min":56,"x_max":462,"o":"m 334 99 l 236 324 l 334 562 l 462 562 l 365 324 l 462 99 l 334 99 m 151 99 l 56 324 l 151 562 l 281 562 l 184 324 l 281 99 l 151 99 z "},"»":{"ha":517,"x_min":56,"x_max":462,"o":"m 183 562 l 281 336 l 183 99 l 56 99 l 153 336 l 56 562 l 183 562 m 366 562 l 462 336 l 366 99 l 236 99 l 333 336 l 236 562 l 366 562 z "},"…":{"ha":1577,"x_min":102,"x_max":1475,"o":"m 262 304 q 376 256 328 304 q 424 141 424 208 q 376 28 424 75 q 262 -18 329 -18 q 147 27 192 -18 q 102 142 102 72 q 149 257 102 210 q 262 304 195 304 m 787 304 q 902 256 854 304 q 949 141 949 208 q 902 28 949 75 q 787 -18 854 -18 q 672 27 718 -18 q 627 142 627 72 q 674 257 627 210 q 787 304 721 304 m 1314 304 q 1427 256 1379 304 q 1475 141 1475 208 q 1428 28 1475 75 q 1313 -18 1380 -18 q 1198 27 1243 -18 q 1153 142 1153 72 q 1200 257 1153 210 q 1314 304 1246 304 z "},"À":{"ha":822,"x_min":74,"x_max":748,"o":"m 429 465 l 429 220 l 349 220 l 349 0 l 74 0 l 74 589 q 167 854 74 760 q 429 949 260 949 q 670 863 592 949 q 748 598 748 777 l 748 0 l 473 0 l 473 580 q 460 655 473 634 q 414 676 447 676 q 349 580 349 676 l 349 465 l 429 465 m 176 1188 l 366 1188 l 534 1003 l 366 1003 l 176 1188 z "},"Ã":{"ha":822,"x_min":74,"x_max":748,"o":"m 429 465 l 429 220 l 349 220 l 349 0 l 74 0 l 74 589 q 167 854 74 760 q 429 949 260 949 q 670 863 592 949 q 748 598 748 777 l 748 0 l 473 0 l 473 580 q 460 655 473 634 q 414 676 447 676 q 349 580 349 676 l 349 465 l 429 465 m 490 1183 l 609 1183 q 574 1050 606 1099 q 493 1002 543 1002 q 404 1034 461 1002 q 367 1048 378 1048 q 340 1007 345 1048 l 214 1007 q 344 1188 231 1188 q 414 1167 375 1188 l 441 1153 q 468 1144 456 1144 q 490 1173 490 1144 q 490 1183 490 1177 z "},"Õ":{"ha":1046,"x_min":37,"x_max":1010,"o":"m 532 949 q 869 806 728 949 q 1010 463 1010 663 q 868 119 1010 260 q 524 -23 726 -23 q 180 119 322 -23 q 37 463 37 262 q 181 808 37 667 q 532 949 324 949 m 524 676 q 379 614 439 676 q 319 463 319 551 q 379 313 319 375 q 524 250 439 250 q 668 312 609 250 q 728 463 728 374 q 668 614 728 552 q 524 676 609 676 m 602 1183 l 721 1183 q 686 1050 717 1099 q 605 1002 655 1002 q 515 1034 573 1002 q 479 1048 490 1048 q 452 1007 456 1048 l 326 1007 q 455 1188 342 1188 q 525 1167 486 1188 l 552 1153 q 579 1144 568 1144 q 602 1173 602 1144 q 602 1183 602 1179 z "},"Œ":{"ha":1315,"x_min":37,"x_max":1251,"o":"m 1232 568 l 1232 362 l 1052 362 q 983 317 983 362 q 1053 268 983 268 l 1251 268 l 1251 0 l 1017 0 q 900 16 946 0 q 804 72 854 31 q 524 -23 670 -23 q 158 148 304 -23 q 37 464 37 288 q 181 806 37 664 q 528 949 326 949 q 804 858 682 949 q 892 912 854 898 q 989 926 930 926 l 1251 926 l 1251 660 l 1068 660 q 1004 614 1004 660 q 1072 568 1004 568 l 1232 568 m 528 676 q 380 614 441 676 q 319 464 319 551 q 380 313 319 376 q 528 250 441 250 q 675 313 614 250 q 736 464 736 376 q 675 614 736 552 q 528 676 614 676 z "},"œ":{"ha":1219,"x_min":33,"x_max":1192,"o":"m 1187 297 l 793 297 q 784 350 784 330 q 797 416 784 372 l 935 416 q 846 492 922 492 q 767 451 798 492 q 736 345 736 410 q 766 241 736 281 q 842 200 796 200 q 921 239 883 200 l 1063 66 q 836 -14 960 -14 q 612 68 718 -14 q 382 -14 509 -14 q 135 88 237 -14 q 33 334 33 190 q 134 586 33 483 q 381 690 235 690 q 612 603 508 690 q 838 690 724 690 q 1114 561 1010 690 q 1192 353 1192 465 q 1187 297 1192 336 m 388 439 q 318 410 346 439 q 290 334 290 380 q 317 264 290 293 q 382 236 344 236 q 454 263 426 236 q 481 334 481 290 q 456 411 481 382 q 388 439 431 439 z "},"–":{"ha":694,"x_min":43,"x_max":652,"o":"m 652 500 l 652 321 l 43 321 l 43 500 l 652 500 z "},"—":{"ha":929,"x_min":0,"x_max":929,"o":"m 929 500 l 929 321 l 0 321 l 0 500 l 929 500 z "},"“":{"ha":888,"x_min":102,"x_max":787,"o":"m 633 945 l 633 895 q 744 847 701 891 q 787 738 787 803 q 741 623 787 669 q 627 576 695 576 q 517 623 562 576 q 472 739 472 670 q 516 867 472 811 q 633 945 559 922 m 263 944 l 263 895 q 374 847 331 891 q 416 738 416 803 q 371 623 416 669 q 257 576 325 576 q 146 623 191 576 q 102 739 102 670 q 145 867 102 811 q 263 944 189 922 z "},"”":{"ha":888,"x_min":102,"x_max":787,"o":"m 255 576 l 255 626 q 144 674 187 630 q 102 783 102 718 q 148 898 102 851 q 261 944 193 944 q 372 897 327 944 q 416 781 416 850 q 373 654 416 709 q 255 576 329 598 m 625 576 l 625 626 q 515 674 557 630 q 472 783 472 718 q 518 898 472 851 q 631 944 564 944 q 742 897 697 944 q 787 781 787 850 q 743 654 787 709 q 625 576 699 598 z "},"‘":{"ha":517,"x_min":102,"x_max":416,"o":"m 263 944 l 263 895 q 374 847 331 891 q 416 738 416 803 q 371 623 416 669 q 257 576 325 576 q 146 623 191 576 q 102 739 102 670 q 145 867 102 811 q 263 944 189 922 z "},"’":{"ha":517,"x_min":102,"x_max":416,"o":"m 255 576 l 255 626 q 144 674 187 630 q 102 783 102 718 q 148 898 102 851 q 261 944 193 944 q 372 897 327 944 q 416 781 416 850 q 373 654 416 709 q 255 576 329 598 z "},"÷":{"ha":1040,"x_min":173,"x_max":866,"o":"m 516 321 q 605 285 568 321 q 642 197 642 249 q 606 112 642 147 q 519 76 570 76 q 432 110 466 76 q 397 197 397 144 q 433 284 397 248 q 516 321 468 321 m 516 868 q 606 832 569 868 q 642 745 642 796 q 606 659 642 694 q 519 623 570 623 q 432 657 466 623 q 397 745 397 692 q 432 831 397 795 q 516 868 467 868 m 173 570 l 866 570 l 866 374 l 173 374 l 173 570 z "},"◊":{"ha":926,"x_min":102,"x_max":824,"o":"m 463 962 l 824 463 l 463 -36 l 102 463 l 463 962 m 463 839 l 189 463 l 463 87 l 736 463 l 463 839 z "},"ÿ":{"ha":745,"x_min":65,"x_max":671,"o":"m 161 -296 l 161 -76 q 252 -98 213 -98 q 412 41 375 -98 q 281 2 345 2 q 126 72 187 2 q 65 251 65 142 l 65 676 l 319 676 l 319 313 q 369 252 319 252 q 417 319 417 252 l 417 676 l 671 676 l 671 73 q 576 -200 671 -96 q 302 -323 463 -323 q 161 -296 231 -323 m 201 976 q 294 942 257 976 q 332 858 332 909 q 292 770 332 808 q 200 732 253 732 q 112 770 150 732 q 75 858 75 808 q 112 941 75 906 q 201 976 150 976 m 541 975 q 633 941 596 975 q 671 857 671 907 q 631 769 671 806 q 539 731 592 731 q 451 769 489 731 q 414 857 414 806 q 451 940 414 905 q 541 975 489 975 z "},"Ÿ":{"ha":699,"x_min":-56,"x_max":745,"o":"m 745 926 l 484 514 l 484 0 l 208 0 l 208 514 l -56 926 l 224 926 l 343 735 l 471 926 l 745 926 m 190 1227 q 276 1191 241 1227 q 312 1105 312 1156 q 276 1019 312 1055 q 190 983 241 983 q 104 1019 140 983 q 68 1105 68 1055 q 104 1191 68 1156 q 190 1227 140 1227 m 508 1227 q 594 1191 559 1227 q 630 1105 630 1156 q 594 1019 630 1055 q 508 983 559 983 q 422 1019 458 983 q 387 1105 387 1055 q 422 1191 387 1156 q 508 1227 458 1227 z "},"∕":{"ha":170,"x_min":-157,"x_max":327,"o":"m 327 926 l -47 0 l -157 0 l 218 926 l 327 926 z "},"€":{"ha":789,"x_min":29,"x_max":750,"o":"m 750 138 l 741 124 q 614 9 684 42 q 463 -24 544 -24 q 223 77 311 -24 q 132 353 136 177 l 29 353 l 43 433 l 132 433 l 132 501 l 29 501 l 43 583 l 132 583 q 227 853 138 758 q 463 949 316 949 q 617 915 554 949 q 746 793 681 881 l 534 639 l 528 654 q 504 692 516 680 q 463 704 491 704 q 396 619 396 704 l 396 583 l 581 583 l 568 501 l 396 501 l 396 435 l 581 435 l 568 353 l 396 353 l 396 307 q 463 222 396 222 q 505 236 488 222 q 536 293 521 249 l 750 138 z "},"‹":{"ha":337,"x_min":56,"x_max":281,"o":"m 151 99 l 56 324 l 151 562 l 281 562 l 184 324 l 281 99 l 151 99 z "},"›":{"ha":337,"x_min":56,"x_max":281,"o":"m 186 562 l 281 336 l 186 99 l 56 99 l 153 336 l 56 562 l 186 562 z "},"":{"ha":777,"x_min":74,"x_max":712,"o":"m 413 526 l 413 260 l 328 260 l 328 0 l 74 0 l 74 574 q 120 766 74 688 q 244 886 161 834 q 395 939 327 939 q 418 937 402 939 l 418 671 q 347 633 367 660 q 328 549 328 606 l 328 526 l 413 526 m 702 676 l 702 0 l 448 0 l 448 676 l 702 676 m 589 949 q 675 914 639 949 q 712 833 712 880 q 676 749 712 783 q 585 715 640 715 q 500 749 534 715 q 467 836 467 783 q 503 916 467 883 q 589 949 538 949 z "},"":{"ha":776,"x_min":74,"x_max":702,"o":"m 413 526 l 413 260 l 328 260 l 328 0 l 74 0 l 74 574 q 136 789 74 705 q 258 895 183 853 q 398 937 332 937 l 413 937 l 413 671 q 346 633 365 660 q 328 549 328 606 l 328 526 l 413 526 m 702 926 l 702 0 l 448 0 l 448 926 l 702 926 z "},"‡":{"ha":694,"x_min":123,"x_max":571,"o":"m 239 454 l 123 454 l 123 694 l 239 694 l 239 926 l 456 926 l 456 694 l 571 694 l 571 454 l 456 454 l 456 306 l 571 306 l 571 65 l 456 65 l 456 -176 l 239 -176 l 239 65 l 123 65 l 123 306 l 239 306 l 239 454 z "},"∙":{"ha":526,"x_min":102,"x_max":424,"o":"m 262 500 q 376 452 328 500 q 424 337 424 404 q 376 224 424 271 q 262 178 329 178 q 147 223 192 178 q 102 338 102 268 q 149 453 102 406 q 262 500 195 500 z "},"‚":{"ha":517,"x_min":102,"x_max":416,"o":"m 255 -71 l 255 -21 q 144 27 187 -17 q 102 136 102 71 q 148 251 102 205 q 261 298 193 298 q 372 251 327 298 q 416 135 416 204 q 373 7 416 63 q 255 -71 329 -48 z "},"„":{"ha":888,"x_min":102,"x_max":787,"o":"m 255 -71 l 255 -21 q 144 27 187 -17 q 102 136 102 71 q 148 251 102 205 q 261 298 193 298 q 372 251 327 298 q 416 135 416 204 q 373 7 416 63 q 255 -71 329 -48 m 625 -71 l 625 -21 q 515 27 557 -17 q 472 136 472 71 q 518 251 472 205 q 631 298 564 298 q 742 251 697 298 q 787 135 787 204 q 743 7 787 63 q 625 -71 699 -48 z "},"‰":{"ha":1861,"x_min":88,"x_max":1773,"o":"m 330 939 q 502 868 431 939 q 573 696 573 797 q 502 525 573 595 q 330 454 431 454 q 159 525 230 454 q 88 696 88 596 q 159 867 88 796 q 330 939 231 939 m 331 803 q 256 772 287 803 q 224 696 224 741 q 256 621 224 652 q 331 590 287 590 q 406 621 375 590 q 437 696 437 652 q 406 772 437 741 q 331 803 375 803 m 867 926 l 493 0 l 410 0 l 786 926 l 867 926 m 957 476 q 1128 405 1057 476 q 1199 233 1199 334 q 1128 62 1199 133 q 957 -9 1057 -9 q 785 62 857 -9 q 714 233 714 133 q 785 405 714 334 q 957 476 857 476 m 957 340 q 882 309 913 340 q 850 234 850 278 q 882 158 850 189 q 957 127 913 127 q 1032 158 1001 127 q 1063 234 1063 189 q 1032 309 1063 278 q 957 340 1001 340 m 1531 476 q 1702 405 1630 476 q 1773 233 1773 334 q 1702 62 1773 133 q 1531 -9 1631 -9 q 1359 62 1430 -9 q 1288 233 1288 133 q 1359 405 1288 334 q 1531 476 1430 476 m 1531 340 q 1455 309 1487 340 q 1424 234 1424 278 q 1455 158 1424 189 q 1531 127 1487 127 q 1606 158 1575 127 q 1637 234 1637 189 q 1606 309 1637 278 q 1531 340 1575 340 z "},"Â":{"ha":822,"x_min":74,"x_max":748,"o":"m 429 465 l 429 220 l 349 220 l 349 0 l 74 0 l 74 589 q 167 854 74 760 q 429 949 260 949 q 670 863 592 949 q 748 598 748 777 l 748 0 l 473 0 l 473 580 q 460 655 473 634 q 414 676 447 676 q 349 580 349 676 l 349 465 l 429 465 m 409 1204 l 613 1002 l 451 1002 l 409 1042 l 370 1002 l 210 1002 l 409 1204 z "},"Ê":{"ha":669,"x_min":74,"x_max":604,"o":"m 587 566 l 587 359 l 407 359 q 355 349 370 359 q 340 312 340 338 q 355 274 340 283 q 419 264 371 264 l 604 264 l 604 0 l 388 0 q 155 73 235 0 q 74 283 74 146 l 74 646 q 150 852 74 779 q 365 926 227 926 l 604 926 l 604 660 l 429 660 q 357 614 357 660 q 374 576 357 587 q 435 566 391 566 l 587 566 m 387 1204 l 591 1002 l 429 1002 l 387 1042 l 348 1002 l 189 1002 l 387 1204 z "},"Á":{"ha":822,"x_min":74,"x_max":748,"o":"m 429 465 l 429 220 l 349 220 l 349 0 l 74 0 l 74 589 q 167 854 74 760 q 429 949 260 949 q 670 863 592 949 q 748 598 748 777 l 748 0 l 473 0 l 473 580 q 460 655 473 634 q 414 676 447 676 q 349 580 349 676 l 349 465 l 429 465 m 673 1187 l 484 1002 l 315 1002 l 484 1187 l 673 1187 z "},"Ë":{"ha":669,"x_min":74,"x_max":671,"o":"m 587 566 l 587 359 l 407 359 q 355 349 370 359 q 340 312 340 338 q 355 274 340 283 q 419 264 371 264 l 604 264 l 604 0 l 388 0 q 155 73 235 0 q 74 283 74 146 l 74 646 q 150 852 74 779 q 365 926 227 926 l 604 926 l 604 660 l 429 660 q 357 614 357 660 q 374 576 357 587 q 435 566 391 566 l 587 566 m 231 1227 q 317 1191 281 1227 q 353 1105 353 1156 q 317 1019 353 1055 q 231 983 281 983 q 145 1019 180 983 q 109 1105 109 1055 q 145 1191 109 1156 q 231 1227 180 1227 m 550 1227 q 636 1191 600 1227 q 671 1105 671 1156 q 636 1019 671 1055 q 550 983 600 983 q 464 1019 499 983 q 428 1105 428 1055 q 464 1191 428 1156 q 550 1227 499 1227 z "},"È":{"ha":669,"x_min":74,"x_max":604,"o":"m 587 566 l 587 359 l 407 359 q 355 349 370 359 q 340 312 340 338 q 355 274 340 283 q 419 264 371 264 l 604 264 l 604 0 l 388 0 q 155 73 235 0 q 74 283 74 146 l 74 646 q 150 852 74 779 q 365 926 227 926 l 604 926 l 604 660 l 429 660 q 357 614 357 660 q 374 576 357 587 q 435 566 391 566 l 587 566 m 146 1188 l 336 1188 l 505 1003 l 336 1003 l 146 1188 z "},"Í":{"ha":460,"x_min":93,"x_max":493,"o":"m 368 926 l 368 0 l 93 0 l 93 926 l 368 926 m 493 1187 l 303 1002 l 134 1002 l 303 1187 l 493 1187 z "},"Î":{"ha":460,"x_min":29,"x_max":432,"o":"m 368 926 l 368 0 l 93 0 l 93 926 l 368 926 m 227 1204 l 432 1002 l 270 1002 l 227 1042 l 188 1002 l 29 1002 l 227 1204 z "},"Ï":{"ha":460,"x_min":-37,"x_max":497,"o":"m 368 926 l 368 0 l 93 0 l 93 926 l 368 926 m 79 1221 q 161 1187 127 1221 q 195 1105 195 1154 q 161 1024 195 1058 q 79 990 127 990 q -3 1024 31 990 q -37 1105 -37 1058 q -3 1187 -37 1154 q 79 1221 31 1221 m 381 1221 q 463 1187 429 1221 q 497 1105 497 1154 q 463 1024 497 1058 q 381 990 429 990 q 300 1024 334 990 q 266 1105 266 1058 q 300 1187 266 1154 q 381 1221 334 1221 z "},"Ì":{"ha":460,"x_min":-5,"x_max":368,"o":"m 368 926 l 368 0 l 92 0 l 92 926 l 368 926 m -5 1188 l 185 1188 l 354 1003 l 185 1003 l -5 1188 z "},"Ó":{"ha":1046,"x_min":37,"x_max":1010,"o":"m 532 949 q 869 806 728 949 q 1010 463 1010 663 q 868 119 1010 260 q 524 -23 726 -23 q 180 119 322 -23 q 37 463 37 262 q 181 808 37 667 q 532 949 324 949 m 524 676 q 379 614 439 676 q 319 463 319 551 q 379 313 319 375 q 524 250 439 250 q 668 312 609 250 q 728 463 728 374 q 668 614 728 552 q 524 676 609 676 m 786 1187 l 596 1002 l 427 1002 l 596 1187 l 786 1187 z "},"Ô":{"ha":1046,"x_min":37,"x_max":1010,"o":"m 532 949 q 869 806 728 949 q 1010 463 1010 663 q 868 119 1010 260 q 524 -23 726 -23 q 180 119 322 -23 q 37 463 37 262 q 181 808 37 667 q 532 949 324 949 m 524 676 q 379 614 439 676 q 319 463 319 551 q 379 313 319 375 q 524 250 439 250 q 668 312 609 250 q 728 463 728 374 q 668 614 728 552 q 524 676 609 676 m 521 1204 l 725 1002 l 563 1002 l 521 1042 l 481 1002 l 322 1002 l 521 1204 z "},"Ò":{"ha":1046,"x_min":37,"x_max":1010,"o":"m 532 949 q 869 806 728 949 q 1010 463 1010 663 q 868 119 1010 260 q 524 -23 726 -23 q 180 119 322 -23 q 37 463 37 262 q 181 808 37 667 q 532 949 324 949 m 524 676 q 379 614 439 676 q 319 463 319 551 q 379 313 319 375 q 524 250 439 250 q 668 312 609 250 q 728 463 728 374 q 668 614 728 552 q 524 676 609 676 m 288 1188 l 477 1188 l 646 1003 l 477 1003 l 288 1188 z "},"Ú":{"ha":818,"x_min":74,"x_max":743,"o":"m 743 926 l 743 326 q 649 72 743 167 q 397 -23 554 -23 q 157 69 240 -23 q 74 334 74 161 l 74 926 l 349 926 l 349 335 q 410 250 349 250 q 468 335 468 250 l 468 926 l 743 926 m 671 1187 l 481 1002 l 313 1002 l 481 1187 l 671 1187 z "},"Û":{"ha":818,"x_min":74,"x_max":743,"o":"m 743 926 l 743 326 q 649 72 743 167 q 397 -23 554 -23 q 157 69 240 -23 q 74 334 74 161 l 74 926 l 349 926 l 349 335 q 410 250 349 250 q 468 335 468 250 l 468 926 l 743 926 m 406 1204 l 610 1002 l 448 1002 l 406 1042 l 366 1002 l 208 1002 l 406 1204 z "},"Ù":{"ha":818,"x_min":74,"x_max":743,"o":"m 743 926 l 743 326 q 649 72 743 167 q 397 -23 554 -23 q 157 69 240 -23 q 74 334 74 161 l 74 926 l 349 926 l 349 335 q 410 250 349 250 q 468 335 468 250 l 468 926 l 743 926 m 174 1188 l 364 1188 l 533 1003 l 364 1003 l 174 1188 z "},"ı":{"ha":402,"x_min":74,"x_max":328,"o":"m 328 676 l 328 0 l 74 0 l 74 676 l 328 676 z "},"ˆ":{"ha":694,"x_min":163,"x_max":532,"o":"m 342 923 l 532 741 l 373 741 l 342 774 l 308 741 l 163 741 l 342 923 z "},"˜":{"ha":694,"x_min":177,"x_max":517,"o":"m 413 897 l 517 897 q 486 784 517 828 q 404 740 454 740 q 350 756 376 740 l 319 775 q 305 780 313 779 q 278 745 284 781 l 177 745 q 207 859 177 818 q 290 899 236 899 q 342 884 317 899 l 369 867 q 386 862 376 863 q 413 897 409 861 z "},"ˉ":{"ha":694,"x_min":176,"x_max":518,"o":"m 518 880 l 518 774 l 176 774 l 176 880 l 518 880 z "},"˘":{"ha":694,"x_min":176,"x_max":519,"o":"m 393 899 l 519 899 q 347 732 490 732 q 176 899 205 732 l 302 899 q 347 840 308 840 q 393 899 388 840 z "},"˙":{"ha":694,"x_min":220,"x_max":474,"o":"m 347 977 q 436 940 399 977 q 474 855 474 904 q 438 768 474 802 q 347 734 403 734 q 256 768 292 734 q 220 855 220 802 q 258 940 220 904 q 347 977 296 977 z "},"˚":{"ha":694,"x_min":216,"x_max":477,"o":"m 347 997 q 439 959 401 997 q 477 866 477 920 q 439 773 477 812 q 347 735 401 735 q 255 773 293 735 q 216 866 216 812 q 255 959 216 920 q 347 997 293 997 m 347 908 q 317 896 329 908 q 304 866 304 884 q 317 836 304 848 q 347 824 329 824 q 376 836 363 824 q 388 866 388 848 q 376 896 388 884 q 347 908 363 908 z "},"¸":{"ha":694,"x_min":193,"x_max":447,"o":"m 447 7 q 284 -191 429 -128 l 193 -98 q 230 -10 230 -50 q 229 7 230 -4 l 447 7 z "},"˝":{"ha":694,"x_min":153,"x_max":624,"o":"m 278 901 l 420 901 l 278 744 l 153 744 l 278 901 m 481 901 l 624 901 l 481 744 l 357 744 l 481 901 z "},"˛":{"ha":694,"x_min":261,"x_max":488,"o":"m 488 -256 q 425 -263 454 -263 q 310 -221 358 -263 q 261 -119 261 -178 q 341 0 261 -54 l 484 0 q 407 -89 407 -53 q 421 -121 407 -108 q 457 -134 436 -134 q 486 -128 467 -134 l 488 -256 z "},"ˇ":{"ha":694,"x_min":163,"x_max":532,"o":"m 342 741 l 163 923 l 308 923 l 342 890 l 373 923 l 532 923 l 342 741 z "},"Š":{"ha":574,"x_min":46,"x_max":562,"o":"m 528 930 l 528 666 q 481 676 498 676 q 428 653 450 676 q 406 597 406 630 q 430 527 406 570 l 451 490 q 508 299 508 391 q 412 71 508 164 q 178 -23 316 -23 q 46 7 111 -23 l 46 275 q 116 250 85 250 q 176 271 152 250 q 200 323 200 292 q 161 412 200 343 q 100 629 100 520 q 193 854 100 760 q 416 949 286 949 q 528 930 473 949 m 364 1002 l 160 1204 l 321 1204 l 364 1163 l 404 1204 l 562 1204 l 364 1002 z "},"š":{"ha":507,"x_min":9,"x_max":568,"o":"m 498 667 l 498 399 q 424 379 444 399 q 399 300 404 359 q 247 24 381 104 q 45 -18 176 -18 l 9 -18 l 9 250 l 21 250 q 108 276 82 250 q 138 365 134 301 q 158 511 144 469 q 214 594 172 553 q 421 667 289 667 l 498 667 m 378 741 l 199 923 l 344 923 l 378 890 l 409 923 l 568 923 l 378 741 z "},"¦":{"ha":694,"x_min":222,"x_max":472,"o":"m 222 926 l 472 926 l 472 428 l 222 428 l 222 926 m 222 213 l 472 213 l 472 -231 l 222 -231 l 222 213 z "},"Ð":{"ha":1017,"x_min":0,"x_max":979,"o":"m 368 660 l 368 553 l 515 553 l 515 368 l 368 368 l 368 0 l 93 0 l 93 368 l 0 368 l 0 553 l 93 553 l 93 926 l 451 926 q 821 819 688 926 q 979 471 979 690 q 844 127 979 260 q 495 -5 709 -5 q 413 -3 470 -5 l 413 269 l 456 269 q 697 471 697 269 q 461 660 697 660 l 368 660 z "},"ð":{"ha":777,"x_min":33,"x_max":744,"o":"m 252 926 l 435 926 l 621 657 q 720 489 696 548 q 744 351 744 429 q 643 92 744 198 q 394 -14 541 -14 q 136 88 239 -14 q 33 342 33 189 q 120 572 33 477 q 351 688 208 668 l 252 926 m 388 439 q 319 410 347 439 q 290 338 290 380 q 319 267 290 296 q 388 237 348 237 q 457 267 429 237 q 486 338 486 296 q 458 410 486 380 q 388 439 429 439 z "},"Ý":{"ha":699,"x_min":-56,"x_max":745,"o":"m 745 926 l 484 514 l 484 0 l 208 0 l 208 514 l -56 926 l 224 926 l 343 735 l 471 926 l 745 926 m 612 1187 l 422 1002 l 254 1002 l 422 1187 l 612 1187 z "},"ý":{"ha":745,"x_min":65,"x_max":671,"o":"m 161 -296 l 161 -76 q 252 -98 213 -98 q 412 41 375 -98 q 281 2 345 2 q 126 72 187 2 q 65 251 65 142 l 65 676 l 319 676 l 319 313 q 369 252 319 252 q 417 319 417 252 l 417 676 l 671 676 l 671 73 q 576 -200 671 -96 q 302 -323 463 -323 q 161 -296 231 -323 m 410 901 l 570 901 l 410 744 l 267 744 l 410 901 z "},"Þ":{"ha":781,"x_min":74,"x_max":760,"o":"m 74 926 l 349 926 l 349 811 q 427 819 391 819 q 664 724 568 819 q 760 489 760 629 q 673 268 760 353 q 436 190 595 190 l 394 190 l 394 433 q 477 497 477 433 q 414 555 477 555 q 349 475 349 555 l 349 0 l 74 0 l 74 926 z "},"þ":{"ha":804,"x_min":59,"x_max":766,"o":"m 59 926 l 313 926 l 313 676 q 408 690 365 690 q 663 588 559 690 q 766 338 766 486 q 663 90 766 195 q 419 -14 560 -14 q 351 -9 396 -14 l 351 270 q 414 245 382 245 q 481 274 453 245 q 509 343 509 303 q 480 411 509 383 q 410 439 451 439 q 313 304 313 439 l 313 -250 l 59 -250 l 59 926 z "},"×":{"ha":1040,"x_min":179,"x_max":861,"o":"m 381 472 l 179 674 l 318 813 l 520 612 l 722 813 l 861 674 l 659 472 l 861 271 l 722 132 l 520 333 l 318 132 l 179 271 l 381 472 z "},"¹":{"ha":517,"x_min":180,"x_max":337,"o":"m 337 926 l 337 370 l 180 370 l 180 926 l 337 926 z "},"²":{"ha":517,"x_min":62,"x_max":455,"o":"m 455 531 l 455 370 l 96 370 l 280 715 q 288 739 288 729 q 249 775 288 775 q 223 764 234 775 q 212 738 212 753 q 227 707 212 721 l 155 581 q 62 744 62 637 q 119 882 62 825 q 256 939 176 939 q 391 882 333 939 q 449 747 449 824 q 431 664 449 699 l 362 531 l 455 531 z "},"³":{"ha":517,"x_min":109,"x_max":408,"o":"m 111 926 l 406 926 l 315 713 q 408 546 408 650 q 348 412 408 467 q 204 357 289 357 q 109 374 156 357 l 109 532 q 170 510 142 510 q 218 531 198 510 q 237 581 237 551 q 132 656 237 656 l 173 766 l 111 766 l 111 926 z "},"½":{"ha":1204,"x_min":180,"x_max":1141,"o":"m 337 926 l 337 370 l 180 370 l 180 926 l 337 926 m 844 926 l 470 0 l 359 0 l 736 926 l 844 926 m 1141 161 l 1141 0 l 783 0 l 966 345 q 974 369 974 359 q 935 406 974 406 q 909 394 920 406 q 898 368 898 383 q 913 337 898 351 l 842 210 q 749 374 749 267 q 805 512 749 455 q 942 570 862 570 q 1077 512 1019 570 q 1135 376 1135 454 q 1117 294 1135 329 l 1048 161 l 1141 161 z "},"¼":{"ha":1204,"x_min":180,"x_max":1149,"o":"m 337 926 l 337 370 l 180 370 l 180 926 l 337 926 m 844 926 l 470 0 l 359 0 l 736 926 l 844 926 m 1149 555 l 1149 0 l 993 0 l 993 424 l 923 286 l 958 286 l 958 165 l 741 165 l 905 555 l 1149 555 z "},"¾":{"ha":1204,"x_min":109,"x_max":1149,"o":"m 111 926 l 406 926 l 315 713 q 408 546 408 650 q 348 412 408 467 q 204 357 289 357 q 109 374 156 357 l 109 532 q 170 510 142 510 q 218 531 198 510 q 237 581 237 551 q 132 656 237 656 l 173 766 l 111 766 l 111 926 m 844 926 l 470 0 l 359 0 l 736 926 l 844 926 m 1149 555 l 1149 0 l 993 0 l 993 424 l 924 286 l 958 286 l 958 165 l 741 165 l 905 555 l 1149 555 z "},"¤":{"ha":1016,"x_min":40,"x_max":977,"o":"m 40 149 l 186 295 q 143 472 143 379 q 192 650 143 557 l 41 799 l 181 939 l 334 785 q 508 829 425 829 q 680 787 593 829 l 831 937 l 970 798 l 823 652 q 875 471 875 562 q 831 296 875 383 l 977 150 l 839 10 l 694 155 q 505 104 604 104 q 323 155 419 104 l 178 12 l 40 149 m 509 600 q 418 563 456 600 q 380 471 380 525 q 418 379 380 417 q 509 340 456 340 q 601 379 564 340 q 639 471 639 417 q 601 563 639 525 q 509 600 563 600 z "}}}
